<svg xmlns="http://www.w3.org/2000/svg" width="85" height="85" viewBox="0 0 85 85">
  <g id="Events" transform="translate(-636 -1405)">
    <rect id="Rectangle_32" data-name="Rectangle 32" width="85" height="85" transform="translate(636 1405)" fill="none"/>
    <path id="Path_283" data-name="Path 283" d="M68.61,72H11.147a3.1,3.1,0,0,0-2.492,1.249,3.2,3.2,0,0,0-.535,2.788L12.988,89h7.764a1.063,1.063,0,0,1,0,2.125H13.315v18.063a3.191,3.191,0,0,0,3.188,3.188H63.254a3.191,3.191,0,0,0,3.188-3.188V91.126H59A1.063,1.063,0,1,1,59,89h7.764l4.868-12.964a3.2,3.2,0,0,0-.535-2.788A3.1,3.1,0,0,0,68.61,72M31.378,102.814a6.914,6.914,0,0,1-6.907-6.907,1.063,1.063,0,1,1,2.125,0,4.781,4.781,0,1,0,4.781-4.781,1.063,1.063,0,1,1,0-2.125,4.25,4.25,0,1,0-4.25-4.25,1.063,1.063,0,0,1-2.125,0,6.375,6.375,0,1,1,9.971,5.262,6.905,6.905,0,0,1-3.6,12.8m20.188-1.063a1.063,1.063,0,0,1-2.125,0V83.222c-2.658,3.528-5,3.654-5.313,3.654V84.751H44.1c.026,0,2.677-.23,5.457-5.788a1.063,1.063,0,0,1,2.013.475Z" transform="translate(638.962 1360.966)" fill="#fff"/>
    <path id="Path_284" data-name="Path 284" d="M163.995,40v0l1.062,0h-1.063" transform="translate(524.408 1384.466)" fill="#d3dce7"/>
    <path id="Path_285" data-name="Path 285" d="M80.071,29.789a1.059,1.059,0,0,1-.6-.95v-4.25A3.191,3.191,0,0,0,76.287,21.4H66.724a1.059,1.059,0,0,1-1.05-.94H63.536v3.353a2.125,2.125,0,1,1-2.125,0V20.461H59.274a1.059,1.059,0,0,1-1.05.94H47.6a1.059,1.059,0,0,1-1.05-.94H44.41v3.353a2.125,2.125,0,1,1-2.125,0V20.461H40.148a1.059,1.059,0,0,1-1.05.94H29.535a3.191,3.191,0,0,0-3.188,3.188v4.25a1.06,1.06,0,0,1-.6.95v2.237h54.32Z" transform="translate(625.929 1398.814)" fill="#d3dce7"/>
    <path id="Path_286" data-name="Path 286" d="M92,40v0l1.062,0H92" transform="translate(577.282 1384.466)" fill="#d3dce7"/>
    <path id="Path_287" data-name="Path 287" d="M31.183,229.035A5.278,5.278,0,0,1,28,227.962V230.1a3.191,3.191,0,0,0,3.188,3.188H77.934a3.191,3.191,0,0,0,3.188-3.188v-2.135a5.278,5.278,0,0,1-3.188,1.073Z" transform="translate(624.281 1246.433)" fill="#82cbe5"/>
    <path id="Path_288" data-name="Path 288" d="M105.058,18.125h10.625a1.059,1.059,0,0,0,1.05-.94,1.034,1.034,0,0,0,.012-.122A1.063,1.063,0,0,0,115.683,16H105.058A1.063,1.063,0,0,0,104,17.063a1.031,1.031,0,0,0,.012.122,1.059,1.059,0,0,0,1.05.94" transform="translate(568.47 1402.09)" fill="#003361"/>
    <path id="Path_289" data-name="Path 289" d="M22.12,25.563v-4.25a3.191,3.191,0,0,1,3.188-3.188h9.563a1.059,1.059,0,0,0,1.05-.94,1.091,1.091,0,0,0,.012-.122A1.063,1.063,0,0,0,34.871,16H25.308A5.319,5.319,0,0,0,20,21.313v4.25a1.063,1.063,0,0,0,1.063,1.063,1.074,1.074,0,0,0,1.063-1.063" transform="translate(630.156 1402.09)" fill="#003361"/>
    <path id="Path_290" data-name="Path 290" d="M177.058,18.125h9.563a3.191,3.191,0,0,1,3.188,3.188v4.25a1.063,1.063,0,1,0,2.125,0v-4.25A5.319,5.319,0,0,0,186.62,16h-9.563a1.063,1.063,0,0,0-1.063,1.063,1.031,1.031,0,0,0,.012.122,1.059,1.059,0,0,0,1.05.94" transform="translate(515.596 1402.09)" fill="#003361"/>
    <path id="Path_291" data-name="Path 291" d="M62.731,64H5.269a5.208,5.208,0,0,0-4.188,2.094,5.306,5.306,0,0,0-.872,4.69c.008.028.017.055.027.082L5.311,84.382v25.308A5.319,5.319,0,0,0,10.624,115H57.376a5.319,5.319,0,0,0,5.313-5.313V84.382l5.075-13.516c.01-.027.019-.054.027-.082a5.306,5.306,0,0,0-.871-4.69A5.208,5.208,0,0,0,62.731,64m-2.168,45.689a3.191,3.191,0,0,1-3.188,3.188H10.624a3.191,3.191,0,0,1-3.188-3.188v-2.135a5.279,5.279,0,0,0,3.188,1.073H57.376a5.278,5.278,0,0,0,3.188-1.073Zm5.194-39.527L60.89,83.126H53.126a1.063,1.063,0,1,0,0,2.125h7.438v18.063a3.191,3.191,0,0,1-3.188,3.188H10.624a3.191,3.191,0,0,1-3.188-3.188V85.251h7.438a1.063,1.063,0,1,0,0-2.125H7.11L2.242,70.162a3.2,3.2,0,0,1,.534-2.788,3.1,3.1,0,0,1,2.492-1.249H62.731a3.1,3.1,0,0,1,2.492,1.249,3.2,3.2,0,0,1,.535,2.788" transform="translate(644.84 1366.841)" fill="#003361"/>
    <path id="Path_292" data-name="Path 292" d="M84,10.625a2.125,2.125,0,1,0,3.188-1.837V1.063a1.063,1.063,0,1,0-2.125,0V8.788A2.125,2.125,0,0,0,84,10.625m2.126,0v0h1.063Z" transform="translate(583.157 1413.84)" fill="#003361"/>
    <path id="Path_293" data-name="Path 293" d="M155.995,10.625a2.125,2.125,0,1,0,3.188-1.837V1.063a1.063,1.063,0,1,0-2.125,0V8.788a2.125,2.125,0,0,0-1.063,1.837m2.126,0v0h1.063Z" transform="translate(530.283 1413.84)" fill="#003361"/>
    <path id="Path_294" data-name="Path 294" d="M150.526,96.028a1.063,1.063,0,0,0-1.195.559c-2.779,5.559-5.43,5.787-5.457,5.789h.032V104.5c.315,0,2.655-.126,5.313-3.654v18.529a1.063,1.063,0,1,0,2.125,0V97.063a1.062,1.062,0,0,0-.818-1.034" transform="translate(539.183 1343.341)" fill="#003361"/>
    <path id="Path_295" data-name="Path 295" d="M80.5,107.637a6.374,6.374,0,1,0-9.971-5.262,1.063,1.063,0,0,0,2.125,0,4.25,4.25,0,1,1,4.25,4.25,1.063,1.063,0,0,0,0,2.125,4.781,4.781,0,1,1-4.781,4.781,1.063,1.063,0,0,0-2.125,0,6.907,6.907,0,1,0,10.5-5.895" transform="translate(593.438 1343.341)" fill="#003361"/>
  </g>
</svg>
