<svg xmlns="http://www.w3.org/2000/svg" width="200" height="155.555" viewBox="0 0 200 155.555">
  <g id="Hardeman_Co_Logo_-_H_Stacked_-_White" data-name="Hardeman Co Logo - H Stacked - White" transform="translate(100 77.778)">
    <g id="Group_72" data-name="Group 72" transform="translate(-100 -77.778)">
      <g id="Group_71" data-name="Group 71" transform="translate(0.802 141.555)">
        <path id="Path_872" data-name="Path 872" d="M4.132,576.322c-.481,0-.883-.263-.883-.606V573.9c0-.344.4-.626.883-.626h10.3c.481,0,.883.283.883.626v1.818c0,.344-.4.606-.883.606H12.342c-.482,0-.883.283-.883.626v9.7c0,.343-.4.626-.883.626H7.983c-.482,0-.883-.283-.883-.626v-9.7c0-.343-.374-.626-.882-.626Z" transform="translate(-3.249 -573.271)" fill="#fff"/>
        <path id="Path_873" data-name="Path 873" d="M96.3,587.272c-.481,0-.882-.283-.882-.626V573.9c0-.344.4-.626.882-.626H105.4c.481,0,.883.283.883.626v1.818c0,.344-.4.606-.883.606h-4.76c-.482,0-.883.283-.883.626v1.232c0,.344.4.626.883.626h2.835c.481,0,.883.283.883.626v1.8c0,.344-.4.626-.883.626h-2.835c-.482,0-.883.283-.883.626v1.111c0,.343.4.626.883.626h5.108c.481,0,.883.283.883.626v1.8c0,.343-.4.626-.883.626Z" transform="translate(-72.661 -573.271)" fill="#fff"/>
        <path id="Path_874" data-name="Path 874" d="M194.3,579.352c.214.323.374.282.374-.041V573.9c0-.344.374-.626.883-.626h2.568c.481,0,.883.283.883.626v12.748c0,.343-.4.626-.883.626H195.4a1.539,1.539,0,0,1-1.23-.566l-4.279-7.031c-.187-.3-.348-.283-.348.06v6.91c0,.343-.374.626-.883.626h-2.568c-.481,0-.883-.283-.883-.626V573.9c0-.344.4-.626.883-.626h3.53a1.661,1.661,0,0,1,1.257.566Z" transform="translate(-140.279 -573.271)" fill="#fff"/>
        <path id="Path_875" data-name="Path 875" d="M294.6,579.352c.214.323.374.282.374-.041V573.9c0-.344.374-.626.883-.626h2.567c.481,0,.882.283.882.626v12.748c0,.343-.4.626-.882.626H295.7a1.538,1.538,0,0,1-1.23-.566l-4.279-7.031c-.187-.3-.348-.283-.348.06v6.91c0,.343-.374.626-.883.626h-2.567c-.481,0-.883-.283-.883-.626V573.9c0-.344.4-.626.883-.626h3.53a1.661,1.661,0,0,1,1.257.566Z" transform="translate(-215.81 -573.271)" fill="#fff"/>
        <path id="Path_876" data-name="Path 876" d="M386.683,587.272c-.482,0-.883-.283-.883-.626V573.9c0-.344.4-.626.883-.626h9.093c.481,0,.883.283.883.626v1.818c0,.344-.4.606-.883.606h-4.76c-.481,0-.883.283-.883.626v1.232c0,.344.4.626.883.626h2.835c.481,0,.882.283.882.626v1.8c0,.344-.4.626-.882.626h-2.835c-.481,0-.883.283-.883.626v1.111c0,.343.4.626.883.626h5.108c.481,0,.882.283.882.626v1.8c0,.343-.4.626-.882.626Z" transform="translate(-291.339 -573.271)" fill="#fff"/>
        <path id="Path_877" data-name="Path 877" d="M479.922,583.595c0,.343.4.626.883.626h1.9c.508,0,.909-.283.909-.626v-1.152c0-.343-.4-.626-.909-.626h-4.226c-1.685,0-2.888-.97-2.888-2v-4.505c0-1.192,1.15-2.041,2.888-2.041h6.579c1.631,0,2.888.848,2.888,2v1.778c0,.344-.4.626-.883.626h-2.567c-.508,0-.883-.283-.883-.626v-.1c0-.343-.4-.626-.909-.626h-1.9c-.481,0-.883.283-.883.626v1.192c0,.343.4.626.883.626h4.252c1.631,0,2.888.95,2.888,2.04v4.465c0,1.091-1.31,2-2.888,2h-6.579c-1.525,0-2.888-.909-2.888-2v-1.7c0-.343.4-.626.882-.626h2.568c.508,0,.882.283.882.626Z" transform="translate(-358.957 -573.271)" fill="#fff"/>
        <path id="Path_878" data-name="Path 878" d="M574.367,583.595c0,.343.4.626.883.626h1.9c.508,0,.909-.283.909-.626v-1.152c0-.343-.4-.626-.909-.626h-4.225c-1.685,0-2.889-.97-2.889-2v-4.505c0-1.192,1.15-2.041,2.889-2.041H579.5c1.631,0,2.888.848,2.888,2v1.778c0,.344-.4.626-.883.626h-2.567c-.508,0-.883-.283-.883-.626v-.1c0-.343-.4-.626-.909-.626h-1.9c-.481,0-.883.283-.883.626v1.192c0,.343.4.626.883.626H579.5c1.631,0,2.888.95,2.888,2.04v4.465c0,1.091-1.31,2-2.888,2h-6.579c-1.525,0-2.889-.909-2.889-2v-1.7c0-.343.4-.626.883-.626h2.567c.508,0,.882.283.882.626Z" transform="translate(-430.082 -573.271)" fill="#fff"/>
        <path id="Path_879" data-name="Path 879" d="M665.365,587.272c-.481,0-.883-.283-.883-.626V573.9c0-.344.4-.626.883-.626h9.093c.482,0,.883.283.883.626v1.818c0,.344-.4.606-.883.606H669.7c-.481,0-.883.283-.883.626v1.232c0,.344.4.626.883.626h2.835c.481,0,.883.283.883.626v1.8c0,.344-.4.626-.883.626H669.7c-.481,0-.883.283-.883.626v1.111c0,.343.4.626.883.626H674.8c.481,0,.883.283.883.626v1.8c0,.343-.4.626-.883.626Z" transform="translate(-501.207 -573.271)" fill="#fff"/>
        <path id="Path_880" data-name="Path 880" d="M755.154,587.272c-.481,0-.883-.283-.883-.626V573.9c0-.344.4-.626.883-.626h9.093c.481,0,.882.283.882.626v1.818c0,.344-.4.606-.882.606h-4.76c-.481,0-.882.283-.882.626v1.232c0,.344.4.626.882.626h2.835c.481,0,.883.283.883.626v1.8c0,.344-.4.626-.883.626h-2.835c-.481,0-.882.283-.882.626v1.111c0,.343.4.626.882.626h5.108c.481,0,.883.283.883.626v1.8c0,.343-.4.626-.883.626Z" transform="translate(-568.825 -573.271)" fill="#fff"/>
      </g>
      <path id="Path_881" data-name="Path 881" d="M16.7,363.971c.7,0,1.29.97,1.29,2.148v43.731c0,1.178-.586,2.148-1.29,2.148H12.9c-.7,0-1.29-.97-1.29-2.148V390.1c-.118-.762-.547-.971-1.056-.485l-3.128,2.841a4.792,4.792,0,0,0-1.095,2.634v14.762c0,1.178-.547,2.148-1.29,2.148H1.29c-.7,0-1.29-.97-1.29-2.148V366.119c0-1.178.587-2.148,1.29-2.148H5.044c.743,0,1.29.97,1.29,2.148v15.247c.117.831.586,1.109,1.095.624l3.128-2.841a4.544,4.544,0,0,0,1.056-2.564V366.119c0-1.178.586-2.148,1.29-2.148H16.7" transform="translate(0 -274.098)" fill="#fff"/>
      <path id="Path_882" data-name="Path 882" d="M97.93,409.92c.118,1.178-.352,2.079-1.055,2.079H92.887c-.7,0-1.408-.9-1.564-2.079q-.684-5.163-1.368-10.326c-.117-.832-.586-1.178-1.017-.693l-3.832,3.673A5.189,5.189,0,0,0,84.089,405q-.332,2.46-.665,4.921c-.156,1.178-.86,2.079-1.564,2.079H77.873c-.7,0-1.173-.9-1.017-2.079l5.474-43.87c.117-1.109.821-2.079,1.525-2.079h7.038c.7,0,1.408.97,1.525,2.079q2.756,21.935,5.513,43.87M86.005,390.514c-.117.9.156,1.247.625.832l1.134-1.04a3.136,3.136,0,0,0,.626-2.356l-.743-5.613c-.156-1.109-.391-1.109-.547,0l-1.095,8.178" transform="translate(-57.856 -274.098)" fill="#fff"/>
      <path id="Path_883" data-name="Path 883" d="M175.612,395.366c-.7,0-1.29.97-1.29,2.148v12.336c0,1.178-.547,2.148-1.29,2.148h-3.753c-.7,0-1.29-.97-1.29-2.148V366.119c0-1.178.586-2.148,1.29-2.148h11.768c2.385,0,4.223,3.257,4.223,7v12.89a8.757,8.757,0,0,1-1.095,4.644c-.508.832-.508,1.247.078,1.94a9.634,9.634,0,0,1,1.8,6.029v13.376c0,1.178-.586,2.148-1.29,2.148h-3.753c-.743,0-1.29-.97-1.29-2.148V397.514c0-1.178-.586-2.148-1.329-2.148Zm2.033-10.465c.7,0,1.29-.9,1.29-2.079v-6.238c0-1.178-.586-2.148-1.29-2.148h-2.033c-.7,0-1.29.97-1.29,2.148v6.238c0,1.178.586,2.079,1.29,2.079Z" transform="translate(-126.508 -274.098)" fill="#fff"/>
      <path id="Path_884" data-name="Path 884" d="M264.477,363.971c2.385,0,4.223,3.257,4.223,7v34.167c0,3.742-1.916,6.861-4.223,6.861h-12.55c-.7,0-1.29-.97-1.29-2.148V366.119c0-1.178.586-2.148,1.29-2.148h12.55m-6.217,10.465c-.7,0-1.29.97-1.29,2.148v22.8c0,1.178.586,2.148,1.29,2.148h2.776c.743,0,1.29-.97,1.29-2.148v-22.8c0-1.178-.547-2.148-1.29-2.148Z" transform="translate(-188.748 -274.098)" fill="#fff"/>
      <path id="Path_885" data-name="Path 885" d="M334.573,412c-.7,0-1.29-.97-1.29-2.148V366.119c0-1.178.587-2.148,1.29-2.148h13.293c.7,0,1.29.97,1.29,2.148v6.238c0,1.178-.587,2.079-1.29,2.079h-6.96c-.7,0-1.29.97-1.29,2.148v4.227c0,1.178.586,2.148,1.29,2.148h4.145c.7,0,1.29.97,1.29,2.149v6.168c0,1.178-.586,2.149-1.29,2.149h-4.145c-.7,0-1.29.97-1.29,2.148v3.812c0,1.178.586,2.148,1.29,2.148h7.468c.7,0,1.29.97,1.29,2.148v6.168c0,1.178-.586,2.148-1.29,2.148Z" transform="translate(-250.987 -274.098)" fill="#fff"/>
      <path id="Path_886" data-name="Path 886" d="M430.861,388.227c0-1.178-.274-1.317-.586-.277l-4.066,12.891c-.313,1.04-1.173,1.871-1.877,1.871h-2.541c-.743,0-1.564-.832-1.877-1.94l-3.753-12.752c-.313-1.04-.547-.97-.547.208q.039,10.812.078,21.623c0,1.178-.586,2.148-1.29,2.148h-3.988c-.7,0-1.29-.97-1.29-2.148V366.119c0-1.178.586-2.148,1.29-2.148h3.753c.743,0,1.564.832,1.916,1.94l6.334,20.168c.352,1.109.86,1.109,1.212.069l6.608-20.306c.352-1.04,1.173-1.871,1.916-1.871h3.754c.7,0,1.29.97,1.29,2.148V409.85c0,1.178-.586,2.148-1.29,2.148h-3.754c-.743,0-1.29-.97-1.29-2.148Z" transform="translate(-308.101 -274.098)" fill="#fff"/>
      <path id="Path_887" data-name="Path 887" d="M547.9,409.92c.118,1.178-.352,2.079-1.056,2.079h-3.988c-.7,0-1.407-.9-1.564-2.079l-1.368-10.326c-.117-.832-.587-1.178-1.017-.693l-3.832,3.673A5.2,5.2,0,0,0,534.064,405l-.664,4.921c-.156,1.178-.86,2.079-1.564,2.079h-3.988c-.7,0-1.173-.9-1.017-2.079q2.737-21.935,5.474-43.87c.117-1.109.821-2.079,1.525-2.079h7.038c.7,0,1.408.97,1.525,2.079l5.513,43.87m-11.925-19.405c-.117.9.157,1.247.626.832l1.134-1.04a3.137,3.137,0,0,0,.625-2.356l-.743-5.613c-.156-1.109-.391-1.109-.547,0l-1.095,8.178" transform="translate(-396.721 -274.098)" fill="#fff"/>
      <path id="Path_888" data-name="Path 888" d="M631.255,384.831c.313,1.109.547.97.547-.139V366.119c0-1.178.547-2.148,1.29-2.148h3.753c.7,0,1.29.97,1.29,2.148V409.85c0,1.178-.587,2.148-1.29,2.148h-3.988c-.7,0-1.525-.831-1.8-1.94L624.8,385.94c-.274-1.039-.508-.97-.508.208q0,11.851,0,23.7c0,1.178-.548,2.148-1.29,2.148h-3.753c-.7,0-1.29-.97-1.29-2.148V366.119c0-1.178.586-2.148,1.29-2.148h5.161c.743,0,1.525.9,1.838,1.94l5,18.92" transform="translate(-465.372 -274.098)" fill="#fff"/>
      <path id="Path_889" data-name="Path 889" d="M737.782,373.451c0-.553-.622-1.008-1.409-1.008h-2.943c-.746,0-1.368.455-1.368,1.008v10.694c0,.553.622,1.007,1.368,1.007h2.943c.788,0,1.409-.455,1.409-1.007V381.74c0-.553.58-1.008,1.368-1.008h3.979c.746,0,1.368.455,1.368,1.008v5.1c0,1.755-2.031,3.218-4.476,3.218h-10.2c-2.363,0-4.477-1.463-4.477-3.218V370.818c0-1.755,2.114-3.283,4.477-3.283h10.2c2.528,0,4.476,1.528,4.476,3.283v5.006c0,.553-.622,1.007-1.368,1.007h-3.979c-.787,0-1.368-.455-1.368-1.007Z" transform="translate(-546.241 -276.782)" fill="#fff"/>
      <path id="Path_890" data-name="Path 890" d="M733.25,469.639a10.4,10.4,0,1,0,10.805,10.39,10.616,10.616,0,0,0-10.805-10.39m-7.92,5.877,3.128-.35.745-2.942,1.313,2.752,3.14-.228L731.34,476.8l1.2,2.8-2.745-1.485-2.4,1.959.62-2.969Zm7.66,10.083.005,3.028-1.958-2.372-2.994.941,1.741-2.523-1.855-2.447,3.034.813,1.847-2.453.134,3.026,3,.931Zm5.744-5.129-1.341,2.74-.715-2.949-3.125-.38,2.7-1.565-.589-2.975,2.381,1.982,2.76-1.458-1.224,2.79,2.3,2.073Z" transform="translate(-544.056 -353.674)" fill="#fff"/>
      <path id="Path_891" data-name="Path 891" d="M284.716,4.9c-.236,2.356-.725,4.7-.929,7.064-.661,7.641-1.721,24.612,10.432,22.517,2.366-.408,5.53-2.267,7.8-1.472,4.087,1.432,4.113,12.578.53,14.71a2.451,2.451,0,0,1-1.249.367c-1.064-.088-3.375-1.27-4.633-1.605-13.431-3.577-10.146,8.994-8.184,17.059.929,3.817,2.18,7.562,3.044,11.4-6.417,1.93-16.18,5.361-22.7,2.781-9.071-3.593,1.445-13.555-3.848-20.322-5.017-6.413-20.313-.7-17.406,7.4,1.29,3.593,4.475,7.112,4.3,11.366-.188,4.578-6.855,3.3-9.864,2.694a101.252,101.252,0,0,1-13.1-4.1c.353-3.32,1.084-6.619,1.41-9.944.9-9.166.9-21.988-12.246-18.289-1.21.341-3.942,1.868-4.96,1.371-1.146-.56-1.932-2.63-2.248-3.8-.888-3.3-1.168-8.2-.062-11.448.209-.615.693-1.687,1.366-1.845,1.132-.264,4.725,1.654,6.193,2.019,8.151,2.024,7.721-6.188,7.069-11.79-.638-5.476-2.125-10.791-3.317-16.149,1.738-.739,3.513-1.456,5.295-2.082,3.442-1.21,11.868-4.027,15.045-2.191,2.488,1.438,1.115,6.556.448,8.809-.916,3.091-2.99,5.84-1.771,9.132,2.9,7.829,21.974,10.674,20.912.237-.378-3.714-1.747-7.347-1.874-11.344-.059-1.835.029-5.288,1.717-6.421,2.748-1.844,9.016-.267,12.116.519,3.615.917,7.166,2.221,10.711,3.362" transform="translate(-158.209 0)" fill="#fff"/>
    </g>
  </g>
</svg>
