<svg xmlns="http://www.w3.org/2000/svg" width="334.729" height="80.61" viewBox="0 0 334.729 80.61">
  <g id="Hardeman_Co_Logo_-_H_Horizontal_-_White" data-name="Hardeman Co Logo - H Horizontal - White" transform="translate(167.365 40.305)">
    <g id="Group_98" data-name="Group 98" transform="translate(-167.364 -40.305)">
      <path id="Path_1154" data-name="Path 1154" d="M75.688,4.968c-.24,2.389-.735,4.77-.942,7.164C74.076,19.88,73,37.092,85.325,34.967c2.4-.414,5.609-2.3,7.909-1.494,4.144,1.452,4.172,12.756.537,14.918a2.484,2.484,0,0,1-1.266.372c-1.079-.09-3.423-1.288-4.7-1.628-13.621-3.628-10.289,9.121-8.3,17.3.942,3.871,2.21,7.669,3.087,11.557-6.508,1.957-16.409,5.437-23.017,2.82-9.2-3.643,1.466-13.747-3.9-20.61-5.088-6.5-20.6-.712-17.652,7.5,1.308,3.644,4.539,7.212,4.361,11.527-.191,4.642-6.952,3.348-10,2.732a102.586,102.586,0,0,1-13.285-4.154c.358-3.367,1.1-6.712,1.43-10.084.911-9.3.915-22.3-12.419-18.547-1.228.345-4,1.894-5.03,1.39C1.913,48,1.115,45.9.8,44.714-.1,41.367-.389,36.4.733,33.1c.212-.624.7-1.712,1.385-1.871,1.148-.268,4.792,1.677,6.281,2.047,8.266,2.053,7.831-6.275,7.169-11.956-.647-5.554-2.155-10.943-3.364-16.377,1.763-.75,3.563-1.477,5.369-2.112C21.064,1.608,29.61-1.249,32.832.614c2.523,1.459,1.131,6.649.454,8.933-.929,3.134-3.033,5.922-1.8,9.261,2.94,7.94,22.286,10.826,21.209.24-.384-3.767-1.771-7.451-1.9-11.5-.059-1.861.03-5.363,1.741-6.511,2.786-1.87,9.144-.271,12.287.526,3.667.93,7.268,2.253,10.862,3.41" transform="translate(0 0)" fill="#fff"/>
      <g id="Group_97" data-name="Group 97" transform="translate(107.602 2.478)">
        <g id="Group_96" data-name="Group 96" transform="translate(0.911 58.691)">
          <path id="Path_1155" data-name="Path 1155" d="M260.418,149.7c-.546,0-1-.3-1-.688v-2.065c0-.39.456-.712,1-.712h11.693c.547,0,1,.321,1,.712v2.065c0,.39-.456.688-1,.688h-2.369c-.547,0-1,.321-1,.712v11.013c0,.39-.456.711-1,.711h-2.946c-.547,0-1-.321-1-.711V150.409c0-.39-.425-.712-1-.712Z" transform="translate(-259.416 -146.233)" fill="#fff"/>
          <path id="Path_1156" data-name="Path 1156" d="M322.208,162.132c-.547,0-1-.321-1-.711V146.945c0-.39.456-.712,1-.712h10.326c.547,0,1,.321,1,.712v2.065c0,.39-.456.688-1,.688h-5.406c-.547,0-1,.321-1,.712v1.4c0,.39.456.711,1,.711h3.22c.547,0,1,.321,1,.712v2.042c0,.39-.456.711-1,.711h-3.22c-.547,0-1,.321-1,.712v1.262c0,.39.456.711,1,.711h5.8c.547,0,1,.321,1,.711v2.042c0,.39-.456.711-1,.711Z" transform="translate(-295.359 -146.233)" fill="#fff"/>
          <path id="Path_1157" data-name="Path 1157" d="M391.724,153.139c.243.367.425.321.425-.046v-6.149c0-.39.425-.712,1-.712h2.916c.547,0,1,.321,1,.712v14.477c0,.39-.456.711-1,.711h-3.1a1.745,1.745,0,0,1-1.4-.642l-4.859-7.984c-.213-.344-.395-.321-.395.069v7.847c0,.39-.425.711-1,.711H382.4c-.546,0-1-.321-1-.711V146.945c0-.39.456-.712,1-.712h4.009a1.886,1.886,0,0,1,1.428.643Z" transform="translate(-330.373 -146.233)" fill="#fff"/>
          <path id="Path_1158" data-name="Path 1158" d="M458.96,153.139c.243.367.425.321.425-.046v-6.149c0-.39.425-.712,1-.712H463.3c.546,0,1,.321,1,.712v14.477c0,.39-.456.711-1,.711h-3.1a1.746,1.746,0,0,1-1.4-.642l-4.859-7.984c-.213-.344-.395-.321-.395.069v7.847c0,.39-.425.711-1,.711h-2.916c-.547,0-1-.321-1-.711V146.945c0-.39.456-.712,1-.712h4.009a1.885,1.885,0,0,1,1.427.643Z" transform="translate(-369.485 -146.233)" fill="#fff"/>
          <path id="Path_1159" data-name="Path 1159" d="M516.871,162.132c-.547,0-1-.321-1-.711V146.945c0-.39.456-.712,1-.712H527.2c.547,0,1,.321,1,.712v2.065c0,.39-.456.688-1,.688h-5.406c-.547,0-1,.321-1,.712v1.4c0,.39.456.711,1,.711h3.219c.547,0,1,.321,1,.712v2.042c0,.39-.456.711-1,.711h-3.219c-.547,0-1,.321-1,.712v1.262c0,.39.456.711,1,.711h5.8c.547,0,1,.321,1,.711v2.042c0,.39-.456.711-1,.711Z" transform="translate(-408.595 -146.233)" fill="#fff"/>
          <path id="Path_1160" data-name="Path 1160" d="M580.981,157.957c0,.39.456.711,1,.711h2.156c.577,0,1.033-.321,1.033-.711v-1.308c0-.39-.456-.711-1.033-.711h-4.8c-1.913,0-3.28-1.1-3.28-2.271V148.55c0-1.354,1.306-2.317,3.28-2.317h7.471c1.853,0,3.28.964,3.28,2.271v2.019c0,.39-.456.712-1,.712h-2.916c-.577,0-1-.321-1-.712v-.114c0-.39-.456-.712-1.033-.712h-2.156c-.547,0-1,.321-1,.712v1.354c0,.39.456.711,1,.711h4.829c1.853,0,3.28,1.078,3.28,2.317v5.07c0,1.239-1.488,2.271-3.28,2.271h-7.471c-1.731,0-3.28-1.032-3.28-2.271v-1.927c0-.39.456-.711,1-.711h2.916c.577,0,1,.321,1,.711Z" transform="translate(-443.609 -146.233)" fill="#fff"/>
          <path id="Path_1161" data-name="Path 1161" d="M644.3,157.957c0,.39.456.711,1,.711h2.156c.577,0,1.033-.321,1.033-.711v-1.308c0-.39-.456-.711-1.033-.711h-4.8c-1.914,0-3.28-1.1-3.28-2.271V148.55c0-1.354,1.306-2.317,3.28-2.317h7.471c1.853,0,3.28.964,3.28,2.271v2.019c0,.39-.456.712-1,.712h-2.916c-.577,0-1-.321-1-.712v-.114c0-.39-.456-.712-1.033-.712H645.3c-.546,0-1,.321-1,.712v1.354c0,.39.456.711,1,.711h4.829c1.853,0,3.28,1.078,3.28,2.317v5.07c0,1.239-1.488,2.271-3.28,2.271h-7.471c-1.731,0-3.28-1.032-3.28-2.271v-1.927c0-.39.456-.711,1-.711h2.916c.577,0,1,.321,1,.711Z" transform="translate(-480.439 -146.233)" fill="#fff"/>
          <path id="Path_1162" data-name="Path 1162" d="M703.691,162.132c-.546,0-1-.321-1-.711V146.945c0-.39.456-.712,1-.712h10.326c.547,0,1,.321,1,.712v2.065c0,.39-.456.688-1,.688h-5.406c-.547,0-1,.321-1,.712v1.4c0,.39.456.711,1,.711h3.219c.547,0,1,.321,1,.712v2.042c0,.39-.456.711-1,.711h-3.219c-.547,0-1,.321-1,.712v1.262c0,.39.456.711,1,.711h5.8c.547,0,1,.321,1,.711v2.042c0,.39-.456.711-1,.711Z" transform="translate(-517.269 -146.233)" fill="#fff"/>
          <path id="Path_1163" data-name="Path 1163" d="M763.884,162.132c-.547,0-1-.321-1-.711V146.945c0-.39.456-.712,1-.712H774.21c.547,0,1,.321,1,.712v2.065c0,.39-.456.688-1,.688H768.8c-.547,0-1,.321-1,.712v1.4c0,.39.456.711,1,.711h3.219c.547,0,1,.321,1,.712v2.042c0,.39-.456.711-1,.711H768.8c-.547,0-1,.321-1,.712v1.262c0,.39.456.711,1,.711h5.8c.546,0,1,.321,1,.711v2.042c0,.39-.456.711-1,.711Z" transform="translate(-552.283 -146.233)" fill="#fff"/>
        </g>
        <path id="Path_1164" data-name="Path 1164" d="M276.2,5.924c.8,0,1.465,1.1,1.465,2.44V58.026c0,1.338-.666,2.44-1.465,2.44h-4.307c-.8,0-1.465-1.1-1.465-2.44V35.6c-.134-.865-.622-1.1-1.2-.551l-3.552,3.227a5.442,5.442,0,0,0-1.243,2.991V58.026c0,1.338-.622,2.44-1.466,2.44H258.7c-.8,0-1.466-1.1-1.466-2.44V8.364c0-1.338.666-2.44,1.466-2.44h4.262c.844,0,1.466,1.1,1.466,2.44V25.679c.133.944.666,1.259,1.243.709l3.552-3.227a5.165,5.165,0,0,0,1.2-2.912V8.364c0-1.338.666-2.44,1.465-2.44H276.2" transform="translate(-257.238 -5.924)" fill="#fff"/>
        <path id="Path_1165" data-name="Path 1165" d="M332.707,58.1c.133,1.338-.4,2.361-1.2,2.361h-4.529c-.8,0-1.6-1.023-1.776-2.361q-.777-5.863-1.554-11.727c-.133-.945-.666-1.338-1.154-.787l-4.352,4.171a5.9,5.9,0,0,0-1.154,2.754q-.377,2.795-.755,5.588c-.178,1.338-.977,2.361-1.776,2.361h-4.529c-.8,0-1.332-1.023-1.155-2.361q3.108-24.91,6.216-49.82c.133-1.259.932-2.361,1.732-2.361h7.992c.8,0,1.6,1.1,1.732,2.361q3.13,24.91,6.26,49.82M319.165,36.067c-.133,1.024.177,1.417.71.945l1.288-1.18a3.562,3.562,0,0,0,.711-2.676q-.422-3.187-.844-6.374c-.177-1.259-.444-1.259-.622,0q-.621,4.643-1.243,9.287" transform="translate(-287.197 -5.924)" fill="#fff"/>
        <path id="Path_1166" data-name="Path 1166" d="M378.511,41.577c-.8,0-1.465,1.1-1.465,2.44V58.026c0,1.338-.622,2.44-1.465,2.44h-4.262c-.8,0-1.465-1.1-1.465-2.44V8.364c0-1.338.666-2.44,1.465-2.44h13.365c2.708,0,4.8,3.7,4.8,7.949V28.512a9.945,9.945,0,0,1-1.243,5.273c-.577.944-.577,1.416.089,2.2,1.332,1.5,2.043,4.25,2.043,6.848v15.19c0,1.338-.666,2.44-1.465,2.44h-4.262c-.844,0-1.465-1.1-1.465-2.44V44.017c0-1.338-.666-2.44-1.51-2.44Zm2.309-11.885c.8,0,1.465-1.023,1.465-2.361V20.248c0-1.338-.666-2.44-1.465-2.44h-2.309c-.8,0-1.465,1.1-1.465,2.44v7.083c0,1.338.666,2.361,1.465,2.361Z" transform="translate(-322.746 -5.924)" fill="#fff"/>
        <path id="Path_1167" data-name="Path 1167" d="M440.976,5.924c2.708,0,4.8,3.7,4.8,7.949v38.8c0,4.25-2.176,7.792-4.8,7.792H426.723c-.8,0-1.465-1.1-1.465-2.44V8.364c0-1.338.666-2.44,1.465-2.44h14.253m-7.06,11.884c-.8,0-1.465,1.1-1.465,2.44V46.142c0,1.338.666,2.44,1.465,2.44h3.153c.844,0,1.465-1.1,1.465-2.44V20.248c0-1.338-.622-2.44-1.465-2.44Z" transform="translate(-354.976 -5.924)" fill="#fff"/>
        <path id="Path_1168" data-name="Path 1168" d="M482.128,60.466c-.8,0-1.465-1.1-1.465-2.44V8.364c0-1.338.666-2.44,1.465-2.44h15.1c.8,0,1.465,1.1,1.465,2.44v7.083c0,1.338-.666,2.361-1.465,2.361h-7.9c-.8,0-1.465,1.1-1.465,2.44v4.8c0,1.338.666,2.44,1.465,2.44h4.707c.8,0,1.465,1.1,1.465,2.44v7c0,1.338-.666,2.44-1.465,2.44h-4.707c-.8,0-1.465,1.1-1.465,2.44v4.329c0,1.338.666,2.44,1.465,2.44H497.8c.8,0,1.465,1.1,1.465,2.44v7c0,1.338-.666,2.44-1.465,2.44Z" transform="translate(-387.205 -5.924)" fill="#fff"/>
        <path id="Path_1169" data-name="Path 1169" d="M556.191,33.471c0-1.338-.311-1.5-.666-.315l-4.618,14.639c-.355,1.18-1.332,2.125-2.131,2.125H545.89c-.844,0-1.776-.945-2.132-2.2L539.5,33.234c-.356-1.18-.622-1.1-.622.236q.044,12.278.088,24.556c0,1.338-.665,2.44-1.465,2.44h-4.529c-.8,0-1.465-1.1-1.465-2.44V8.364c0-1.338.666-2.44,1.465-2.44h4.263c.844,0,1.776.945,2.176,2.2l7.193,22.9c.4,1.259.977,1.259,1.376.079l7.5-23.06c.4-1.18,1.332-2.125,2.176-2.125h4.262c.8,0,1.465,1.1,1.465,2.44V58.026c0,1.338-.666,2.44-1.465,2.44h-4.262c-.844,0-1.465-1.1-1.465-2.44Z" transform="translate(-416.779 -5.924)" fill="#fff"/>
        <path id="Path_1170" data-name="Path 1170" d="M634.358,58.1c.133,1.338-.4,2.361-1.2,2.361H628.63c-.8,0-1.6-1.023-1.776-2.361L625.3,46.378c-.133-.945-.666-1.338-1.154-.787l-4.352,4.171a5.9,5.9,0,0,0-1.155,2.754q-.377,2.795-.755,5.588c-.177,1.338-.977,2.361-1.776,2.361H611.58c-.8,0-1.332-1.023-1.154-2.361q3.108-24.91,6.216-49.82c.133-1.259.932-2.361,1.732-2.361h7.992c.8,0,1.6,1.1,1.732,2.361l6.261,49.82M620.816,36.067c-.133,1.024.178,1.417.71.945l1.288-1.18a3.565,3.565,0,0,0,.71-2.676q-.422-3.187-.844-6.374c-.177-1.259-.444-1.259-.622,0q-.622,4.643-1.243,9.287" transform="translate(-462.668 -5.924)" fill="#fff"/>
        <path id="Path_1171" data-name="Path 1171" d="M686.6,29.614c.356,1.259.622,1.1.622-.157V8.364c0-1.338.622-2.44,1.465-2.44h4.262c.8,0,1.465,1.1,1.465,2.44V58.026c0,1.338-.666,2.44-1.465,2.44h-4.529c-.8,0-1.732-.944-2.043-2.2l-7.1-27.389c-.311-1.18-.577-1.1-.577.236V58.026c0,1.338-.622,2.44-1.465,2.44h-4.263c-.8,0-1.465-1.1-1.465-2.44V8.364c0-1.338.666-2.44,1.465-2.44h5.861c.844,0,1.732,1.023,2.087,2.2L686.6,29.614" transform="translate(-498.218 -5.924)" fill="#fff"/>
        <path id="Path_1172" data-name="Path 1172" d="M757.613,15.031c0-.627-.706-1.144-1.6-1.144h-3.342c-.847,0-1.553.517-1.553,1.144V27.176c0,.628.706,1.144,1.553,1.144h3.342c.895,0,1.6-.516,1.6-1.144V24.444c0-.628.659-1.144,1.553-1.144h4.519c.847,0,1.553.517,1.553,1.144v5.8c0,1.994-2.306,3.655-5.084,3.655H748.576c-2.683,0-5.084-1.661-5.084-3.655v-18.2c0-1.994,2.4-3.728,5.084-3.728h11.579c2.872,0,5.084,1.735,5.084,3.728v5.685c0,.628-.706,1.144-1.553,1.144h-4.519c-.894,0-1.553-.516-1.553-1.144Z" transform="translate(-540.093 -7.314)" fill="#fff"/>
        <path id="Path_1173" data-name="Path 1173" d="M753.818,76.761a11.808,11.808,0,1,0,12.271,11.8,12.056,12.056,0,0,0-12.271-11.8m-8.995,6.674,3.553-.4.846-3.342,1.492,3.126,3.566-.258-2.631,2.329,1.358,3.182-3.118-1.686-2.727,2.225.7-3.371Zm8.7,11.451.006,3.438-2.223-2.693-3.4,1.068,1.978-2.865-2.107-2.779,3.445.923,2.1-2.786.152,3.436,3.4,1.057Zm6.523-5.824-1.523,3.111-.812-3.349-3.548-.431,3.061-1.778-.669-3.378,2.7,2.251,3.134-1.656L761,87l2.607,2.354Z" transform="translate(-538.962 -47.13)" fill="#fff"/>
      </g>
    </g>
  </g>
</svg>
