<svg xmlns="http://www.w3.org/2000/svg" width="30" height="30" viewBox="0 0 30 30">
  <g id="Instagram_Icon_-_White" data-name="Instagram Icon - White" transform="translate(-3342.566 -696.493)">
    <path id="Path_49" data-name="Path 49" d="M1662.88,125.324H1655.3a2.23,2.23,0,0,0-2.26,2.265v.757h3.793a5.135,5.135,0,0,1,1.078-.544,3.5,3.5,0,0,1,1.2-.213,3.257,3.257,0,0,1,1.182.213,5.559,5.559,0,0,1,1.062.544h3.83v-.757a2.156,2.156,0,0,0-.679-1.612,2.264,2.264,0,0,0-1.632-.653m.777,2.265h-1.5v-1.5h1.5Z" transform="translate(1698.451 580.01)" fill="#fff"/>
    <path id="Path_50" data-name="Path 50" d="M1710.225,183a2.283,2.283,0,0,0,0-3.239,2.228,2.228,0,0,0-1.6-.653,2.264,2.264,0,0,0-1.643.653,2.3,2.3,0,0,0,0,3.239,2.281,2.281,0,0,0,1.643.648,2.244,2.244,0,0,0,1.6-.648" transform="translate(1648.945 530.021)" fill="#fff"/>
    <path id="Path_51" data-name="Path 51" d="M1662.667,180.167a3.315,3.315,0,0,1,.212,1.213,3.577,3.577,0,0,1-.3,1.472,4.087,4.087,0,0,1-.808,1.2,3.741,3.741,0,0,1-1.182.819,3.6,3.6,0,0,1-1.472.306,3.859,3.859,0,0,1-2.705-1.125,4.168,4.168,0,0,1-.8-1.2,3.578,3.578,0,0,1-.306-1.472,3.428,3.428,0,0,1,.213-1.213,5.432,5.432,0,0,1,.549-1.062h-3.021v6.074a2.228,2.228,0,0,0,.653,1.6,2.14,2.14,0,0,0,1.606.674h7.577a2.222,2.222,0,0,0,1.633-.674,2.192,2.192,0,0,0,.679-1.6V179.1h-3.037a6.281,6.281,0,0,1,.513,1.062" transform="translate(1698.452 530.019)" fill="#fff"/>
    <path id="Path_52" data-name="Path 52" d="M1555.273,9.269a14.946,14.946,0,0,0-3.266-4.866A14.991,14.991,0,0,0,1526.4,15a14.9,14.9,0,0,0,4.4,10.6,15.006,15.006,0,0,0,24.471-16.338m-6.316,10.178a2.979,2.979,0,0,1-3.018,3.018h-9.117a2.987,2.987,0,0,1-3.018-3.018V10.33a3,3,0,0,1,3.018-3.018h9.117a3,3,0,0,1,3.018,3.018Z" transform="translate(1816.164 696.491)" fill="#fff"/>
  </g>
</svg>
