<svg xmlns="http://www.w3.org/2000/svg" width="30" height="30" viewBox="0 0 30 30">
  <path id="LinkedIn_Icon_-_White" data-name="LinkedIn Icon - White" d="M14.69,1017.6h.7a15.454,15.454,0,0,1,9.445,3.633q3.5,3.506,4.28,6.309a8.948,8.948,0,0,1,.7,2.666c.12,1,.18,1.645.18,1.949v1.415a16.363,16.363,0,0,1-1.425,5.417,15.578,15.578,0,0,1-7.2,7.181,16.559,16.559,0,0,1-6.24,1.43h-.175a15.15,15.15,0,0,1-10.24-4.086,14.831,14.831,0,0,1-3.65-5.327A14.631,14.631,0,0,1,0,1033.658v-1.869q0-4.582,3.82-9.314,5.01-4.874,10.87-4.874m-5.7,9.578v.538a1.52,1.52,0,0,0,1.685,1.331,1.638,1.638,0,0,0,1.61-1.331v-.09q0-1.368-1.695-1.6a1.742,1.742,0,0,0-1.6,1.156m7.665,3.912h-.19v-.892H13.62v8.442c.02.115.08.174.175.174h2.49a.157.157,0,0,0,.18-.174v-4.53q.217-1.869,1.52-1.869,1.507,0,1.51,1.869v4.53c.02.115.08.174.175.174h2.68v-5.591a3.629,3.629,0,0,0-1.435-2.761,5.544,5.544,0,0,0-1.33-.438H18.69a3.05,3.05,0,0,0-2.035,1.067m-7.49-.718v8.267c.02.115.08.174.18.174h2.49a.156.156,0,0,0,.175-.174v-8.093l-.175-.349H9.345c-.12.02-.18.08-.18.174" transform="translate(0 -1017.602)" fill="#fff"/>
</svg>
