<svg xmlns="http://www.w3.org/2000/svg" width="85" height="85" viewBox="0 0 85 85">
  <g id="Photo" transform="translate(1210.493 -2447.512)">
    <rect id="Rectangle_32" data-name="Rectangle 32" width="85" height="85" transform="translate(-1210.493 2447.512)" fill="none"/>
    <path id="Path_1422" data-name="Path 1422" d="M50.183,472.453a4.236,4.236,0,0,1,3.4-1.7H67.429a4.269,4.269,0,0,1,3.4,1.7l4.3,5.738H79.8A5.318,5.318,0,0,1,85.11,483.5v12.729l5.29-27.254a1.068,1.068,0,0,0-.839-1.251l-50.067-9.7a1.067,1.067,0,0,0-1.252.839L35.49,473.08a1.062,1.062,0,0,1-1.245.841l-.825,4.27H45.88Z" transform="translate(-1226.537 2000.131)" fill="#82cbe5"/>
    <path id="Path_1423" data-name="Path 1423" d="M98.655,603.172a1.008,1.008,0,0,1,.648,1.238,8.782,8.782,0,0,0-.342,2.468,9.085,9.085,0,1,0,9.085-9.085c-.072,0-.136,0-.208.005-.055.006-.111.005-.164.005a1.4,1.4,0,0,0-.144.005l-.04,0a8.979,8.979,0,0,0-2.723.592c-.062.024-.121.049-.18.074l-.2.083c-.163.077-.326.154-.479.23a1,1,0,0,1-1.323-.4,10.038,10.038,0,0,0-3.928,4.784" transform="translate(-1274.443 1897.477)" fill="#d3dce7"/>
    <path id="Path_1424" data-name="Path 1424" d="M93.92,597.591c-.013,0-.024-.011-.037-.015a1.011,1.011,0,0,0-1.252.685,10.809,10.809,0,0,0-.423,3.036,11.1,11.1,0,1,0,11.1-11.1c-.1,0-.221,0-.354.011-.1,0-.214,0-.342.014a10.979,10.979,0,0,0-3.312.723c-.079.03-.158.064-.237.1-.059.025-.118.05-.177.073-.023.009-.045.018-.067.028-.188.088-.376.177-.552.265a1.009,1.009,0,0,0-.452,1.354c.009.017.021.032.031.048a1,1,0,0,0,1.323.4c.154-.077.316-.153.479-.23l.2-.083c.059-.025.118-.05.18-.074a8.979,8.979,0,0,1,2.723-.592l.04,0a1.4,1.4,0,0,1,.144-.006c.053,0,.109,0,.164-.005a2.071,2.071,0,0,1,.208-.006,9.085,9.085,0,1,1-9.085,9.085,8.782,8.782,0,0,1,.342-2.468,1.008,1.008,0,0,0-.648-1.237" transform="translate(-1269.708 1903.058)" fill="#003258"/>
    <path id="Path_1425" data-name="Path 1425" d="M79.664,557.993A19.641,19.641,0,0,0,69.532,560.8a1.063,1.063,0,0,0,1.1,1.821,17.51,17.51,0,1,1-6.993,7.914,1.063,1.063,0,1,0-1.943-.86,19.661,19.661,0,1,0,17.973-11.683" transform="translate(-1246.062 1926.704)" fill="#003258"/>
    <path id="Path_1426" data-name="Path 1426" d="M28.007,564.118a2.125,2.125,0,1,0,2.125-2.125,2.128,2.128,0,0,0-2.125,2.125m2.126,0v0h1.063Z" transform="translate(-1222.562 1923.766)" fill="#003258"/>
    <path id="Path_1427" data-name="Path 1427" d="M65.429,459.768l-50.069-9.7a3.2,3.2,0,0,0-3.741,2.52L8.867,466.8a1.063,1.063,0,0,0,.841,1.245h0a1.062,1.062,0,0,0,1.245-.841L13.7,452.991a1.067,1.067,0,0,1,1.252-.839l50.067,9.7a1.068,1.068,0,0,1,.839,1.251l-5.29,27.255V477.631a5.319,5.319,0,0,0-5.313-5.313H50.6l-4.3-5.738a4.27,4.27,0,0,0-3.4-1.7H29.046a4.237,4.237,0,0,0-3.4,1.7l-4.3,5.738H5.32a5.319,5.319,0,0,0-5.313,5.313v31.877A5.319,5.319,0,0,0,5.32,514.82H17.008a1.063,1.063,0,0,0,0-2.125H5.32a3.191,3.191,0,0,1-3.188-3.188V477.631a3.191,3.191,0,0,1,3.188-3.188H24.446a1.063,1.063,0,1,0,0-2.125H24l3.352-4.47a2.107,2.107,0,0,1,1.695-.843H42.892a2.135,2.135,0,0,1,1.7.85l3.347,4.463H46.76a1.063,1.063,0,0,0,0,2.125h8.5a3.191,3.191,0,0,1,3.188,3.188v31.877A3.191,3.191,0,0,1,55.26,512.7H54.2a1.063,1.063,0,0,0,0,2.125H55.26a5.319,5.319,0,0,0,5.313-5.313v-7.995l7.376-38a3.2,3.2,0,0,0-2.52-3.741" transform="translate(-1202 2006.004)" fill="#003258"/>
  </g>
</svg>
