<svg xmlns="http://www.w3.org/2000/svg" width="125" height="125" viewBox="0 0 125 125">
  <g id="Voter_-_Blue" data-name="Voter - Blue" transform="translate(12 13)">
    <rect id="Rectangle_24" data-name="Rectangle 24" width="125" height="125" transform="translate(-12 -13)" fill="none"/>
    <path id="Path_207" data-name="Path 207" d="M117.125,81.047l-34.906,34.7L64,97.641l9.109-9.047,9.109,9.047L108.016,72Z" transform="translate(-39 -43.875)" fill="#82cce6"/>
    <path id="Path_208" data-name="Path 208" d="M116.25,78.609a1.561,1.561,0,0,0-.461-1.108l-9.11-9.047a1.562,1.562,0,0,0-2.2,0L79.781,93l-8.008-7.953a1.562,1.562,0,0,0-2.2,0l-9.109,9.046a1.562,1.562,0,0,0,0,2.217l18.219,18.11a1.563,1.563,0,0,0,2.2,0l34.907-34.7a1.564,1.564,0,0,0,.461-1.109m-36.469,32.5-16-15.906,6.893-6.845,8.008,7.953a1.562,1.562,0,0,0,2.2,0l24.7-24.546,6.893,6.845Z" transform="translate(-36.563 -41.438)" fill="#003361"/>
    <path id="Path_209" data-name="Path 209" d="M91.66,32.739a14.321,14.321,0,0,1-1.113-5.568A17.727,17.727,0,0,0,72.829,9.453,14.342,14.342,0,0,1,67.25,8.336a14.384,14.384,0,0,1-4.723-3.144,17.707,17.707,0,0,0-25.054,0A14.4,14.4,0,0,1,32.74,8.34a14.324,14.324,0,0,1-5.568,1.113A17.727,17.727,0,0,0,9.453,27.171,14.34,14.34,0,0,1,8.336,32.75a14.39,14.39,0,0,1-3.144,4.724,17.707,17.707,0,0,0,0,25.053A14.4,14.4,0,0,1,8.341,67.26a14.33,14.33,0,0,1,1.113,5.568A17.727,17.727,0,0,0,27.172,90.547a14.674,14.674,0,0,1,10.3,4.261,17.707,17.707,0,0,0,25.054,0,14.671,14.671,0,0,1,10.3-4.261A17.727,17.727,0,0,0,90.547,72.828a14.674,14.674,0,0,1,4.261-10.3,17.707,17.707,0,0,0,0-25.053,14.4,14.4,0,0,1-3.148-4.734M92.6,60.317a17.8,17.8,0,0,0-5.177,12.511A14.6,14.6,0,0,1,72.829,87.422,17.8,17.8,0,0,0,60.317,92.6a14.583,14.583,0,0,1-20.634,0,17.8,17.8,0,0,0-12.511-5.177A14.6,14.6,0,0,1,12.578,72.828a17.42,17.42,0,0,0-1.352-6.766A17.488,17.488,0,0,0,7.4,60.317a14.583,14.583,0,0,1,0-20.634,17.47,17.47,0,0,0,3.821-5.735,17.43,17.43,0,0,0,1.356-6.777A14.6,14.6,0,0,1,27.172,12.578a17.413,17.413,0,0,0,6.766-1.352A17.481,17.481,0,0,0,39.683,7.4a14.583,14.583,0,0,1,20.634,0,17.462,17.462,0,0,0,5.735,3.82,17.423,17.423,0,0,0,6.777,1.356A14.6,14.6,0,0,1,87.422,27.171,17.8,17.8,0,0,0,92.6,39.683a14.583,14.583,0,0,1,0,20.634" fill="#003361"/>
    <path id="Path_210" data-name="Path 210" d="M79.054,47.125a29.389,29.389,0,0,1,10.387,1.869,1.563,1.563,0,1,0,1.1-2.925,32.838,32.838,0,0,0-42.791,20.9,1.563,1.563,0,1,0,2.982.934A29.539,29.539,0,0,1,79.054,47.125" transform="translate(-29.054 -26.813)" fill="#d3dde8"/>
    <path id="Path_211" data-name="Path 211" d="M179.764,152.1a1.562,1.562,0,0,0-2.01.918,29.7,29.7,0,0,1-12.972,15.317,1.563,1.563,0,1,0,1.561,2.707,32.84,32.84,0,0,0,14.34-16.933,1.563,1.563,0,0,0-.918-2.01" transform="translate(-99.937 -92.624)" fill="#d3dde8"/>
  </g>
</svg>
