<svg xmlns="http://www.w3.org/2000/svg" width="125" height="125" viewBox="0 0 125 125">
  <g id="Wheel_-_Blue" data-name="Wheel - Blue" transform="translate(13 13)">
    <rect id="Rectangle_23" data-name="Rectangle 23" width="125" height="125" transform="translate(-13 -13)" fill="none"/>
    <path id="Path_191" data-name="Path 191" d="M39.87,5.639a48.377,48.377,0,0,1,47,80.684,48.177,48.177,0,0,1-34.481,14.454A48.838,48.838,0,0,1,40.51,99.309v-.016A48.345,48.345,0,0,1,4,52.388,48.414,48.414,0,0,1,39.87,5.639M89.85,52.388A37.462,37.462,0,1,0,52.388,89.85,37.472,37.472,0,0,0,89.85,52.388" transform="translate(-2.439 -2.439)" fill="#82cce6"/>
    <path id="Path_192" data-name="Path 192" d="M71.9,36a35.9,35.9,0,1,0,35.9,35.9A35.942,35.942,0,0,0,71.9,36M43.306,86.371a1.561,1.561,0,0,1-.911-2.83l.435-.313a30.936,30.936,0,0,1,0-22.654L42.4,60.26a1.561,1.561,0,0,1,1.819-2.537l1.408,1.013.041.029,9.448,6.8a7.812,7.812,0,0,1,0,12.679l-9.449,6.8-.041.03-1.408,1.013a1.555,1.555,0,0,1-.908.292m25.626,18.3a1.482,1.482,0,0,1-.155.008,1.561,1.561,0,0,1-1.551-1.408l-.052-.524A31.346,31.346,0,0,1,47.576,91.4l-.506.228a1.561,1.561,0,0,1-1.286-2.845l1.606-.725.009,0,10.623-4.8A7.8,7.8,0,0,1,68.99,89.6l1.163,11.577c0,.028.007.056.009.084l.171,1.7a1.56,1.56,0,0,1-1.4,1.706m1.23-62.1v.013L68.99,54.2a7.828,7.828,0,0,1-7.755,7.037,7.811,7.811,0,0,1-3.21-.7L45.784,55.014a1.561,1.561,0,1,1,1.286-2.845l.506.228a31.345,31.345,0,0,1,19.6-11.344l.053-.524a1.561,1.561,0,1,1,3.107.305ZM98.8,90.853a1.561,1.561,0,0,1-2.065.78l-.5-.228A31.615,31.615,0,0,1,87.55,98.89l0,0,0,0-.03.019a30.665,30.665,0,0,1-10.883,3.835l-.053.524a1.561,1.561,0,0,1-1.552,1.408,1.474,1.474,0,0,1-.155-.008,1.56,1.56,0,0,1-1.4-1.706l.171-1.735v-.014L74.812,89.6a7.8,7.8,0,0,1,10.965-6.34l10.623,4.8.011,0,1.607.725a1.562,1.562,0,0,1,.78,2.065m2.967-32.771a1.56,1.56,0,0,1-.358,2.178l-.436.313a30.936,30.936,0,0,1,0,22.654l.436.313a1.561,1.561,0,0,1-1.82,2.537l-1.408-1.013-.041-.03-9.447-6.795a7.811,7.811,0,0,1,0-12.679l9.449-6.8.041-.029,1.408-1.013a1.561,1.561,0,0,1,2.178.359M98.8,52.949a1.561,1.561,0,0,1-.78,2.065L85.78,60.54a7.723,7.723,0,0,1-7.113-.363A7.714,7.714,0,0,1,74.812,54.2L73.649,42.62c0-.028-.006-.055-.008-.084l-.171-1.7a1.561,1.561,0,1,1,3.107-.305l.052.523A31.347,31.347,0,0,1,96.227,52.4l.506-.228a1.561,1.561,0,0,1,2.065.78" transform="translate(-21.952 -21.952)" fill="#d3dde8"/>
    <path id="Path_193" data-name="Path 193" d="M67.023,28a39.023,39.023,0,1,0,39.023,39.023A39.067,39.067,0,0,0,67.023,28m0,74.924a35.9,35.9,0,1,1,35.9-35.9,35.942,35.942,0,0,1-35.9,35.9" transform="translate(-17.074 -17.074)" fill="#003361"/>
    <path id="Path_194" data-name="Path 194" d="M156.556,161.55l-1.607-.725-.011-.005-10.623-4.8a7.8,7.8,0,0,0-10.965,6.34l-1.171,11.617v.014l-.171,1.735a1.561,1.561,0,0,0,1.4,1.706,1.487,1.487,0,0,0,.155.008,1.561,1.561,0,0,0,1.551-1.408l.053-.524a30.658,30.658,0,0,0,10.884-3.835l.03-.019,0,0,0,0a31.614,31.614,0,0,0,8.678-7.485l.5.228a1.561,1.561,0,1,0,1.286-2.845m-10.779,6.623-1.521-2.475a1.561,1.561,0,1,0-2.659,1.635l1.479,2.406a27.52,27.52,0,0,1-7.585,2.551l.966-9.616a4.681,4.681,0,0,1,6.577-3.8l8.781,3.965a28.555,28.555,0,0,1-6.037,5.339" transform="translate(-80.49 -94.714)" fill="#003361"/>
    <path id="Path_195" data-name="Path 195" d="M82.785,44.007a1.559,1.559,0,0,0-1.706,1.4l-.052.523a31.349,31.349,0,0,0-19.6,11.344l-.506-.228a1.561,1.561,0,1,0-1.286,2.845l12.24,5.527a7.723,7.723,0,0,0,7.112-.363,7.713,7.713,0,0,0,3.854-5.977l1.171-11.617v-.013l.171-1.735a1.56,1.56,0,0,0-1.4-1.706M79.736,58.768a4.681,4.681,0,0,1-6.577,3.8l-8.78-3.965A28.225,28.225,0,0,1,80.7,49.153Z" transform="translate(-35.805 -26.83)" fill="#003361"/>
    <path id="Path_196" data-name="Path 196" d="M175.4,92.254l-9.449,6.8a7.812,7.812,0,0,0,0,12.679l9.448,6.8.041.03,1.408,1.013a1.561,1.561,0,1,0,1.819-2.537l-.436-.313a30.936,30.936,0,0,0,0-22.654l.436-.313a1.561,1.561,0,0,0-1.819-2.537l-1.408,1.013-.041.029m1.859,13.135a27.806,27.806,0,0,1-1.653,9.438l-7.83-5.631a4.69,4.69,0,0,1,0-7.613l7.831-5.632a27.808,27.808,0,0,1,1.653,9.438" transform="translate(-99.21 -55.44)" fill="#003361"/>
    <path id="Path_197" data-name="Path 197" d="M154.764,57.276a31.347,31.347,0,0,0-19.6-11.344l-.051-.523a1.561,1.561,0,1,0-3.107.305l.171,1.7c0,.028.005.056.009.084l1.163,11.578a7.828,7.828,0,0,0,7.755,7.039,7.813,7.813,0,0,0,3.212-.7l12.238-5.526a1.561,1.561,0,1,0-1.285-2.845Zm-11.729,5.3a4.681,4.681,0,0,1-6.579-3.806l-.969-9.613a28.223,28.223,0,0,1,16.326,9.455Z" transform="translate(-80.489 -26.831)" fill="#003361"/>
    <path id="Path_198" data-name="Path 198" d="M84.007,173.944l-1.163-11.577a7.8,7.8,0,0,0-10.967-6.342l-10.623,4.8-.009,0-1.606.725a1.561,1.561,0,1,0,1.286,2.845l.506-.229a31.348,31.348,0,0,0,19.6,11.344l.052.524a1.561,1.561,0,0,0,1.552,1.408,1.478,1.478,0,0,0,.155-.007,1.56,1.56,0,0,0,1.4-1.706l-.171-1.7c0-.028-.005-.056-.009-.084M64.38,162.835l8.778-3.964a4.681,4.681,0,0,1,6.579,3.806l.969,9.612a28.223,28.223,0,0,1-16.326-9.455" transform="translate(-35.805 -94.714)" fill="#003361"/>
    <path id="Path_199" data-name="Path 199" d="M52.981,118.525l9.449-6.8a7.812,7.812,0,0,0,0-12.679l-9.448-6.795-.041-.03-1.408-1.013a1.561,1.561,0,0,0-1.819,2.537l.435.313a30.936,30.936,0,0,0,0,22.654l-.435.313a1.561,1.561,0,0,0,1.819,2.537l1.408-1.013.041-.03M51.122,105.39a27.808,27.808,0,0,1,1.653-9.438l7.83,5.631a4.69,4.69,0,0,1,0,7.613l-7.831,5.632a27.81,27.81,0,0,1-1.653-9.438" transform="translate(-29.269 -55.44)" fill="#003361"/>
    <path id="Path_200" data-name="Path 200" d="M123.609,115.8a7.8,7.8,0,1,0-7.8,7.8,7.813,7.813,0,0,0,7.8-7.8m-7.8,4.683a4.683,4.683,0,1,1,4.683-4.683,4.688,4.688,0,0,1-4.683,4.683" transform="translate(-65.855 -65.855)" fill="#003361"/>
    <path id="Path_201" data-name="Path 201" d="M98.213,37.052c0-.008,0-.016-.006-.025A49.9,49.9,0,0,0,85.349,14.711l-.016-.016-.005-.005A49.961,49.961,0,0,0,1.617,37.315l0,.008,0,.011a50.164,50.164,0,0,0,.206,25.993h0l0,.008A50.022,50.022,0,0,0,37.479,98.315a1.588,1.588,0,0,0,.213.07A50.6,50.6,0,0,0,49.949,99.9,50.018,50.018,0,0,0,98.254,62.7V62.69a50.208,50.208,0,0,0-.042-25.632ZM39.327,95.561a.877.877,0,0,1,.4-.466A1.561,1.561,0,0,0,38.1,92.433a4.2,4.2,0,0,0-1.786,2.308,46.547,46.547,0,0,1-18.4-10.661,1.151,1.151,0,0,1,.745-.327,1.561,1.561,0,0,0-.248-3.112,4.488,4.488,0,0,0-2.7,1.23A46.57,46.57,0,0,1,5.08,63.356a1.422,1.422,0,0,1,.959.074,1.561,1.561,0,0,0,1.251-2.86,4.827,4.827,0,0,0-3.007-.249,46.87,46.87,0,0,1,.14-21.34,1.393,1.393,0,0,1,.805.527,1.561,1.561,0,0,0,2.5-1.873,4.8,4.8,0,0,0-2.467-1.681,46.84,46.84,0,0,1,10.9-18.409,1.137,1.137,0,0,1,.332.754,1.561,1.561,0,0,0,1.555,1.448c.037,0,.076,0,.114,0a1.561,1.561,0,0,0,1.444-1.67,4.485,4.485,0,0,0-1.21-2.71,46.754,46.754,0,0,1,18.6-10.412.981.981,0,0,1-.128.65,1.561,1.561,0,0,0,2.758,1.463,4.256,4.256,0,0,0,.4-2.878A46.734,46.734,0,0,1,61.207,4.5a.713.713,0,0,1-.314.277A1.561,1.561,0,1,0,62.45,7.487a3.651,3.651,0,0,0,1.772-2.131,46.6,46.6,0,0,1,18.1,10.762,1.213,1.213,0,0,1-.262.021,1.561,1.561,0,0,0,0,3.122,3.708,3.708,0,0,0,2.48-.873A46.788,46.788,0,0,1,94.843,36.616c-.04-.02-.081-.041-.125-.067a1.561,1.561,0,0,0-1.566,2.7,3.864,3.864,0,0,0,1.942.555,3.31,3.31,0,0,0,.563-.053,47.05,47.05,0,0,1-.119,20.924c-.025-.037-.05-.077-.076-.123A1.561,1.561,0,1,0,92.753,62.1,3.709,3.709,0,0,0,94.689,63.8a46.655,46.655,0,0,1-10.56,18.142,1.536,1.536,0,0,1-.012-.224,1.561,1.561,0,0,0-3.122,0,3.734,3.734,0,0,0,.875,2.483,46.381,46.381,0,0,1-18.3,10.579.688.688,0,0,1,.13-.431,1.561,1.561,0,1,0-2.717-1.537,3.731,3.731,0,0,0-.436,2.772,47.272,47.272,0,0,1-21.221-.019" transform="translate(0)" fill="#003361"/>
  </g>
</svg>
