<svg xmlns="http://www.w3.org/2000/svg" width="30" height="30" viewBox="0 0 30 30">
  <path id="X_Icon_-_White" data-name="X Icon - White" d="M14.745,0h.612a15.157,15.157,0,0,1,9.686,3.818Q30,8.855,30,14.381v1.434a15.764,15.764,0,0,1-2.479,7.537,15.623,15.623,0,0,1-8.343,6.039A17.459,17.459,0,0,1,15.1,30h-.09A15.126,15.126,0,0,1,0,15.008,15.491,15.491,0,0,1,4.625,4.175,15.271,15.271,0,0,1,14.745,0M7.029,6.565l6.476,8.692v.06L6.975,22.436h1.4l5.834-6.243q4.637,6.213,4.724,6.243h4.958L17,13.156V13.1q.366-.306,6.068-6.537h-1.4l-5.311,5.66h-.115q-3.92-5.384-4.261-5.66ZM9.3,7.615h2.16Q21.671,21.154,21.674,21.326h-2.22q-.2-.149-10.264-13.651Z" transform="translate(-0.001 -0.003)" fill="#fff"/>
</svg>
