<svg xmlns="http://www.w3.org/2000/svg" width="30" height="30" viewBox="0 0 30 30">
  <g id="Youtube_Icon_-_White" data-name="Youtube Icon - White" transform="translate(-3234.755 -732.43)">
    <path id="Path_53" data-name="Path 53" d="M28.872,518.069a15.171,15.171,0,0,0-8.138-8.133A14.943,14.943,0,0,0,4.4,513.2a14.954,14.954,0,0,0,0,21.2,15.006,15.006,0,0,0,24.471-16.338m-6.3,6.15c-.005.269-.016.6-.036.989s-.052.787-.093,1.2a6.768,6.768,0,0,1-.181,1.072,1.954,1.954,0,0,1-.487.854,1.8,1.8,0,0,1-.849.492,10.167,10.167,0,0,1-1.424.176q-.955.07-1.988.093c-.689.016-1.279.026-1.776.031s-.74.005-.74.005-.248,0-.745-.005-1.087-.021-1.781-.041-1.356-.047-1.988-.088a9.181,9.181,0,0,1-1.434-.181,1.88,1.88,0,0,1-.849-.5,1.954,1.954,0,0,1-.487-.854,7.376,7.376,0,0,1-.181-1.061c-.041-.4-.067-.808-.088-1.2s-.036-.72-.041-.984-.005-.393-.005-.393,0-.135.005-.4.021-.6.041-.984.047-.792.088-1.2a7.7,7.7,0,0,1,.181-1.082,1.964,1.964,0,0,1,.5-.849,1.89,1.89,0,0,1,.839-.5,10.335,10.335,0,0,1,1.429-.176c.637-.042,1.3-.073,1.983-.088s1.284-.031,1.786-.041l.751-.016.74.016c.5.01,1.087.026,1.776.047s1.351.052,1.988.093a8.129,8.129,0,0,1,1.424.181,1.8,1.8,0,0,1,.849.492,1.947,1.947,0,0,1,.487.844,7.611,7.611,0,0,1,.192,1.082c.041.409.072.813.088,1.206s.026.725.031.984.01.4.01.4-.005.135-.01.4" transform="translate(3234.755 223.628)" fill="#fff"/>
    <path id="Path_54" data-name="Path 54" d="M191.137,693.709l3.944-2.26-3.944-2.3Z" transform="translate(3057.102 55.999)" fill="#fff"/>
  </g>
</svg>
