<svg xmlns="http://www.w3.org/2000/svg" width="125" height="125" viewBox="0 0 125 125">
  <g id="Agendas_-_Blue" data-name="Agendas - Blue" transform="translate(13 13)">
    <rect id="Rectangle_21" data-name="Rectangle 21" width="125" height="125" transform="translate(-13 -13)" fill="none"/>
    <path id="Path_157" data-name="Path 157" d="M205.149,56.591h-15.59A1.564,1.564,0,0,1,188,55.032V42.56l.842-.92Z" transform="translate(-114.726 -25.411)" fill="#d3dde8"/>
    <path id="Path_158" data-name="Path 158" d="M100.187,161.684H22.236A6.234,6.234,0,0,1,16,155.448V110.236A6.234,6.234,0,0,1,22.236,104H36.267l9.354,7.8H86.156a6.234,6.234,0,0,1,6.236,6.236v35.857a7.8,7.8,0,0,0,7.8,7.8" transform="translate(-9.764 -63.465)" fill="#82cce6"/>
    <path id="Path_159" data-name="Path 159" d="M98.218,63.18a1.559,1.559,0,0,0-1.559,1.559v45.212a6.236,6.236,0,0,1-12.472,0h6.236a1.559,1.559,0,0,0,1.559-1.559V50.708a1.544,1.544,0,0,0-.034-.32c0-.017-.011-.033-.016-.05a1.5,1.5,0,0,0-.08-.249c-.012-.028-.03-.053-.043-.08a1.582,1.582,0,0,0-.108-.191c-.022-.032-.05-.059-.074-.09a1.539,1.539,0,0,0-.13-.146c-.007-.007-.013-.017-.021-.024L72.768,32.409A1.559,1.559,0,0,0,71.715,32H35.857A1.559,1.559,0,0,0,34.3,33.559v7.8H9.354A1.559,1.559,0,0,0,7.8,42.913v9.354a1.559,1.559,0,1,0,3.118,0v-7.8H34.3V58.5a1.559,1.559,0,0,0,3.118,0V35.118H71.109L86.415,49.149H74.833V46.031a1.559,1.559,0,0,0-3.118,0v3.118a3.122,3.122,0,0,0,3.118,3.118H88.864v54.566H84.187V74.094a7.8,7.8,0,0,0-7.8-7.8H36.422L27.5,58.865a1.559,1.559,0,0,0-1-.361H7.8A7.8,7.8,0,0,0,0,66.3V111.51a7.8,7.8,0,0,0,7.8,7.8H90.423a9.33,9.33,0,0,0,9.354-9.354V64.739a1.559,1.559,0,0,0-1.559-1.559M7.8,116.187a4.682,4.682,0,0,1-4.677-4.677V66.3A4.682,4.682,0,0,1,7.8,61.621H25.939l8.92,7.434a1.559,1.559,0,0,0,1,.361H76.392a4.682,4.682,0,0,1,4.677,4.677v35.857a9.316,9.316,0,0,0,2.388,6.236Z" transform="translate(0 -19.528)" fill="#003361"/>
    <path id="Path_160" data-name="Path 160" d="M121.559,79.118H135.59a1.559,1.559,0,0,0,0-3.118H121.559a1.559,1.559,0,0,0,0,3.118" transform="translate(-73.229 -46.379)" fill="#003361"/>
    <path id="Path_161" data-name="Path 161" d="M121.559,99.118H146.5a1.559,1.559,0,1,0,0-3.118H121.559a1.559,1.559,0,0,0,0,3.118" transform="translate(-73.229 -58.584)" fill="#003361"/>
    <path id="Path_162" data-name="Path 162" d="M37.559,15.59a1.559,1.559,0,0,0,1.559-1.559V3.118H89.007V6.236a1.559,1.559,0,1,0,3.118,0V1.559A1.559,1.559,0,0,0,90.566,0H37.559A1.559,1.559,0,0,0,36,1.559V14.031a1.559,1.559,0,0,0,1.559,1.559" transform="translate(-21.969)" fill="#003361"/>
  </g>
</svg>
