<svg xmlns="http://www.w3.org/2000/svg" width="125" height="125" viewBox="0 0 125 125">
  <g id="Bill_-_Blue" data-name="Bill - Blue" transform="translate(13 13)">
    <rect id="Rectangle_22" data-name="Rectangle 22" width="125" height="125" transform="translate(-13 -13)" fill="none"/>
    <path id="Path_167" data-name="Path 167" d="M10.334,29.873l13.092-5.562L42.049,16.5,71.859,4l5.765,12.5,3.609,7.812,3.515,7.624v.187H15.614a7.745,7.745,0,0,1-5.374-2.156Z" transform="translate(-6.24 -2.438)" fill="#82cce6"/>
    <path id="Path_168" data-name="Path 168" d="M10.936,99.99H85.928a7.821,7.821,0,0,0,7.812-7.812V85.929a1.562,1.562,0,1,0-3.125,0v6.249a4.692,4.692,0,0,1-4.687,4.687H10.936a7.821,7.821,0,0,1-7.812-7.812V28.835a9.292,9.292,0,0,0,6.249,2.411H85.928a4.692,4.692,0,0,1,4.687,4.687v6.249a1.562,1.562,0,1,0,3.125,0V35.934a7.821,7.821,0,0,0-7.812-7.812H9.374a6.273,6.273,0,0,1-6.249-6.249,5.144,5.144,0,0,1,.024-.616A6.485,6.485,0,0,1,9.7,15.623H28.048L16.581,20.432a1.562,1.562,0,1,0,1.208,2.881L64.831,3.586l5.106,11.063c.008.02.018.038.026.057l3.611,7.822a1.562,1.562,0,1,0,2.836-1.311l-2.582-5.594h5.851a4.692,4.692,0,0,1,4.687,4.687v1.562a1.562,1.562,0,1,0,3.125,0V20.31A7.821,7.821,0,0,0,79.679,12.5H72.387L67.037.908A1.562,1.562,0,0,0,65.014.122L35.5,12.5H9.7a9.628,9.628,0,0,0-9.66,8.426A7.825,7.825,0,0,0,0,21.873v67.18A10.949,10.949,0,0,0,10.936,99.99" transform="translate(0 0)" fill="#003361"/>
    <path id="Path_169" data-name="Path 169" d="M172,164.005l1.561,0H172v.005" transform="translate(-104.82 -99.944)" fill="#d3dde8"/>
    <path id="Path_170" data-name="Path 170" d="M181.5,136h-26.56a10.936,10.936,0,1,0,0,21.873H181.5a3.128,3.128,0,0,0,3.125-3.125V139.126A3.128,3.128,0,0,0,181.5,136m-26.56,14.061a3.125,3.125,0,1,1,3.125-3.125,3.128,3.128,0,0,1-3.125,3.125" transform="translate(-87.756 -82.881)" fill="#d3dde8"/>
    <path id="Path_171" data-name="Path 171" d="M176.621,128h-26.56a14.061,14.061,0,1,0,0,28.122h26.56a6.257,6.257,0,0,0,6.249-6.249V134.25A6.257,6.257,0,0,0,176.621,128m3.125,21.873A3.128,3.128,0,0,1,176.621,153h-26.56a10.936,10.936,0,1,1,0-21.873h26.56a3.128,3.128,0,0,1,3.125,3.125Z" transform="translate(-82.881 -78.006)" fill="#003361"/>
    <path id="Path_172" data-name="Path 172" d="M167.125,156a3.125,3.125,0,1,0,3.125,3.125A3.128,3.128,0,0,0,167.125,156m0,3.129v-.005h1.562Z" transform="translate(-99.944 -95.07)" fill="#003361"/>
  </g>
</svg>
