<svg xmlns="http://www.w3.org/2000/svg" width="125" height="125" viewBox="0 0 125 125">
  <g id="Booking_-_Blue" data-name="Booking - Blue" transform="translate(13 13)">
    <rect id="Rectangle_26" data-name="Rectangle 26" width="125" height="125" transform="translate(-13 -13)" fill="none"/>
    <path id="Path_212" data-name="Path 212" d="M108.188,120v51.563H16V120h4.688a3.125,3.125,0,0,1,3.125,3.125V151.25H41a3.134,3.134,0,0,1,3.125,3.125v1.563a3.134,3.134,0,0,0,3.125,3.125h25a3.134,3.134,0,0,0,3.125-3.125v-1.562A3.134,3.134,0,0,1,78.5,151.25H95.688V123.125a2.923,2.923,0,0,1,.141-.922,3.128,3.128,0,0,1,2.984-2.2Z" transform="translate(-9.75 -73.125)" fill="#82cce6"/>
    <path id="Path_213" data-name="Path 213" d="M105.728,97.188V80H36.978V97.188l-1.937.078a3.169,3.169,0,0,1,.375,1.484v28.125H52.6A3.134,3.134,0,0,1,55.728,130v1.563a3.134,3.134,0,0,0,3.125,3.125h25a3.134,3.134,0,0,0,3.125-3.125V130a3.134,3.134,0,0,1,3.125-3.125H107.29V98.75a2.923,2.923,0,0,1,.141-.922Z" transform="translate(-21.353 -48.75)" fill="#d3dde8"/>
    <path id="Path_214" data-name="Path 214" d="M78.744,104c2.125,0,6.219,1.313,5.7,5.422l-.406,3.828c-.3,2.5-1.172,4.016-2.516,4.813l-1.344.609a4.665,4.665,0,0,1-3.953-.031l-1.266-.609c-1.312-.8-2.187-2.3-2.469-4.781l-.484-4.141a3.007,3.007,0,0,1,2.656-3.484c0-.469.719-1.625,3.125-1.625Z" transform="translate(-43.869 -63.375)" fill="#fff"/>
    <path id="Path_215" data-name="Path 215" d="M52,29.563V34.25a1.563,1.563,0,0,0,3.125,0V31.125H108.25V34.25a1.563,1.563,0,0,0,3.125,0V29.563A1.563,1.563,0,0,0,109.813,28H53.563A1.563,1.563,0,0,0,52,29.563" transform="translate(-31.688 -17.063)" fill="#003361"/>
    <path id="Path_216" data-name="Path 216" d="M112.438,6.25A1.563,1.563,0,0,0,114,4.688V1.563A1.563,1.563,0,0,0,112.438,0H65.563A1.563,1.563,0,0,0,64,1.563V4.688a1.563,1.563,0,0,0,3.125,0V3.125h43.75V4.688a1.563,1.563,0,0,0,1.563,1.563" transform="translate(-39)" fill="#003361"/>
    <path id="Path_217" data-name="Path 217" d="M99.981,68.624a1.559,1.559,0,0,0-.023-.161c0-.01,0-.02,0-.03l-7.812-31.25a1.562,1.562,0,1,0-3.031.758L96.436,67.25H89.063a4.713,4.713,0,0,0-4.473,3.292,4.478,4.478,0,0,0-.214,1.4V98.5H68.75a4.693,4.693,0,0,0-4.687,4.687v1.563a1.564,1.564,0,0,1-1.562,1.563h-25a1.564,1.564,0,0,1-1.562-1.562v-1.562A4.693,4.693,0,0,0,31.25,98.5H15.625V71.937a4.688,4.688,0,0,0-4.687-4.687H3.564l7.327-29.309a1.562,1.562,0,1,0-3.031-.758L.047,68.434c0,.01,0,.02,0,.03A3.645,3.645,0,0,0,0,68.782c0,.01,0,.02,0,.03v51.562a1.563,1.563,0,0,0,1.563,1.563H98.438A1.563,1.563,0,0,0,100,120.375V68.812c0-.011,0-.02,0-.03a1.561,1.561,0,0,0-.016-.158m-3.106,50.189H3.125V70.375h7.813a1.573,1.573,0,0,1,1.373.816,1.607,1.607,0,0,1,.19.746v28.125a1.563,1.563,0,0,0,1.563,1.563H31.25a1.564,1.564,0,0,1,1.563,1.563v1.563a4.693,4.693,0,0,0,4.688,4.688h25a4.693,4.693,0,0,0,4.688-4.687v-1.562a1.564,1.564,0,0,1,1.563-1.562H85.938a1.563,1.563,0,0,0,1.563-1.562V71.937a1.4,1.4,0,0,1,.061-.429l.012-.037a1.565,1.565,0,0,1,1.49-1.1h7.813Z" transform="translate(0 -21.937)" fill="#003361"/>
    <path id="Path_218" data-name="Path 218" d="M157,117.563A1.563,1.563,0,0,0,155.438,116H133.563a1.563,1.563,0,0,0,0,3.125h21.875A1.563,1.563,0,0,0,157,117.563" transform="translate(-80.438 -70.688)" fill="#003361"/>
    <path id="Path_219" data-name="Path 219" d="M133.563,136a1.563,1.563,0,0,0,0,3.125H144.5a1.563,1.563,0,0,0,0-3.125Z" transform="translate(-80.438 -82.875)" fill="#003361"/>
    <path id="Path_220" data-name="Path 220" d="M36,65.563V79.625a1.563,1.563,0,0,0,3.125,0v-12.5H104.75v12.5a1.563,1.563,0,0,0,3.125,0V65.563A1.563,1.563,0,0,0,106.313,64H37.563A1.563,1.563,0,0,0,36,65.563" transform="translate(-21.938 -39)" fill="#003361"/>
    <path id="Path_221" data-name="Path 221" d="M56.079,151.62a1.563,1.563,0,0,0,1.977.988l4.069-1.356a14.862,14.862,0,0,0,12.748,0l4.069,1.356a1.563,1.563,0,0,0,.988-2.965l-4.687-1.562a1.577,1.577,0,0,0-1.275.129,11.73,11.73,0,0,1-10.934,0,1.566,1.566,0,0,0-1.28-.132l-4.687,1.563a1.563,1.563,0,0,0-.988,1.977" transform="translate(-34.124 -90.188)" fill="#003361"/>
    <path id="Path_222" data-name="Path 222" d="M80.054,110.628c-.224,1.888-.8,3.083-1.761,3.653a1.562,1.562,0,1,0,1.594,2.688c1.828-1.084,2.928-3.093,3.272-5.991l.4-3.8a5.805,5.805,0,0,0-1.355-4.7,8.2,8.2,0,0,0-5.9-2.475h-.953c-2.274,0-3.6.867-4.229,1.81a4.6,4.6,0,0,0-1.942,1.27,4.73,4.73,0,0,0-1.162,3.773l.484,4.135c.322,2.844,1.4,4.843,3.21,5.941a1.563,1.563,0,0,0,1.622-2.671c-.952-.578-1.517-1.763-1.728-3.627l-.481-4.109a1.689,1.689,0,0,1,.34-1.309,1.369,1.369,0,0,1,.761-.463,1.563,1.563,0,0,0,1.531-1.248,2.451,2.451,0,0,1,1.594-.377h.953a5.2,5.2,0,0,1,3.555,1.418,2.726,2.726,0,0,1,.594,2.277Z" transform="translate(-41.434 -60.938)" fill="#003361"/>
  </g>
</svg>
