<svg xmlns="http://www.w3.org/2000/svg" width="125" height="125" viewBox="0 0 125 125">
  <g id="Estate_-_Blue" data-name="Estate - Blue" transform="translate(13 13)">
    <rect id="Rectangle_27" data-name="Rectangle 27" width="125" height="125" transform="translate(-13 -13)" fill="none"/>
    <path id="Path_202" data-name="Path 202" d="M79.976,178.75V160h21.875v18.75l.016.063a40.74,40.74,0,0,1-21.906,0Z" transform="translate(-48.726 -97.5)" fill="#d3dde8"/>
    <path id="Path_203" data-name="Path 203" d="M85.25,44.625a40.738,40.738,0,0,1-2.062,12.8L72.75,49.313V29H58.688v9.375L44.625,29,5.734,56.375A40.626,40.626,0,1,1,85.25,44.625" transform="translate(-2.438 -2.438)" fill="#82cce6"/>
    <path id="Path_204" data-name="Path 204" d="M69.354,48.109l10.438,8.109c.036.028.075.048.112.073s.057.04.088.057a1.571,1.571,0,0,0,.266.119h0c.029.01.059.014.089.021a1.542,1.542,0,0,0,.154.037,1.58,1.58,0,0,0,.249.02,1.55,1.55,0,0,0,.31-.035l.076-.018a1.565,1.565,0,0,0,.251-.087c.016-.007.033-.012.049-.02a1.542,1.542,0,0,0,.262-.164c.021-.016.041-.033.061-.05a1.566,1.566,0,0,0,.205-.208c.006-.008.014-.013.02-.021s0-.006.005-.009a1.529,1.529,0,0,0,.153-.244c.013-.026.022-.053.034-.08.02-.045.041-.088.057-.135A42.189,42.189,0,1,0,1.8,54.39c.009.028.023.051.032.078a1.483,1.483,0,0,0,.064.153,1.526,1.526,0,0,0,.08.142c.015.024.025.051.042.075s.027.029.038.044a1.57,1.57,0,0,0,.111.128c.033.035.066.07.1.1s.079.063.12.092a1.44,1.44,0,0,0,.129.086,1.4,1.4,0,0,0,.128.064,1.489,1.489,0,0,0,.144.06c.046.016.093.027.139.038s.1.024.151.031.1.009.144.011a1.474,1.474,0,0,0,.161,0,1.365,1.365,0,0,0,.136-.016,1.489,1.489,0,0,0,.17-.033c.019,0,.038-.005.057-.011s.052-.023.079-.033a1.476,1.476,0,0,0,.151-.062,1.525,1.525,0,0,0,.146-.082c.023-.015.049-.024.071-.04L42.212,28.457l13.171,8.781a1.563,1.563,0,0,0,2.429-1.3V28.125H68.75v18.75a1.563,1.563,0,0,0,.6,1.234M56.25,25a1.563,1.563,0,0,0-1.562,1.563v6.455L43.054,25.263a1.562,1.562,0,0,0-1.766.022L4.225,51.374a39.062,39.062,0,1,1,75.677.973L71.875,46.11V26.563A1.563,1.563,0,0,0,70.313,25Z" fill="#003361"/>
    <path id="Path_205" data-name="Path 205" d="M99.438,168.5A1.563,1.563,0,0,0,101,166.938v-9.375A1.563,1.563,0,0,0,99.438,156H77.563A1.563,1.563,0,0,0,76,157.563v9.375a1.563,1.563,0,0,0,3.125,0v-7.812h18.75v7.813a1.563,1.563,0,0,0,1.563,1.563" transform="translate(-46.313 -95.063)" fill="#003361"/>
    <path id="Path_206" data-name="Path 206" d="M86.758,161.033c.592-.859,1.163-1.757,1.7-2.687a1.562,1.562,0,1,0-2.7-1.568,37.2,37.2,0,0,1-2.3,3.505,38.855,38.855,0,0,1-8.371,8.426,1.554,1.554,0,0,0-.164.121,38.935,38.935,0,0,1-22.982,7.482,39.032,39.032,0,0,1-33.053-18.239,1.563,1.563,0,0,0-2.644,1.666,42.217,42.217,0,0,0,47.066,18.142,41.365,41.365,0,0,0,12.421-5.8l20.695,20.695a7.8,7.8,0,1,0,11.041-11.034Zm18.493,29.537a4.681,4.681,0,0,1-6.615,0L78.269,170.2a41.9,41.9,0,0,0,6.607-6.63l20.382,20.382a4.68,4.68,0,0,1-.007,6.618" transform="translate(-9.749 -95.062)" fill="#003361"/>
  </g>
</svg>
