<svg xmlns="http://www.w3.org/2000/svg" width="30" height="30" viewBox="0 0 30 30">
  <path id="Facebook_Icon_-_White" data-name="Facebook Icon - White" d="M537.674,9.271A14.942,14.942,0,0,0,534.408,4.4a14.99,14.99,0,0,0-25.6,10.6,15.021,15.021,0,0,0,20.733,13.869,15.041,15.041,0,0,0,8.138-19.6m-9.758.424h-1.289c-.761,0-1.232.171-1.413.5a1.1,1.1,0,0,0-.119.274,2.594,2.594,0,0,0-.078.833v1.589h2.79l-.362,2.8h-2.428v7.232h-2.909V15.69H519.7v-2.8h2.413V10.746a3.981,3.981,0,0,1,.528-2.066,3.312,3.312,0,0,1,3.127-1.61,17.8,17.8,0,0,1,2.154.124Z" transform="translate(-508.803 -0.004)" fill="#fff"/>
</svg>
