<svg xmlns="http://www.w3.org/2000/svg" width="85" height="85" viewBox="0 0 85 85">
  <g id="News" transform="translate(-47 -1051)">
    <rect id="Rectangle_31" data-name="Rectangle 31" width="85" height="85" transform="translate(47 1051)" fill="none"/>
    <path id="Path_296" data-name="Path 296" d="M59.564,202.821h11.2a1.045,1.045,0,0,0,.913-.516,1.061,1.061,0,0,0,.022-1.064l-5.263-12.031-1.424-2.732a61.127,61.127,0,0,0-7.11.887,31.076,31.076,0,0,1-4.806.581,15.807,15.807,0,0,1-2.5-.2l5.169,12.73a4.267,4.267,0,0,0,3.8,2.345" transform="translate(18.683 922.892)" fill="#fff"/>
    <path id="Path_297" data-name="Path 297" d="M91.635,43.105c.178-.866.382-1.707.619-2.511-4.7,4.317-11,8.349-17.05,9.858a25.4,25.4,0,0,0-.569,3.067,34.813,34.813,0,0,0,17-10.414" transform="translate(1.029 1030.028)" fill="#fff"/>
    <path id="Path_298" data-name="Path 298" d="M31.231,82.469a28.643,28.643,0,0,1,.491-3.086,17.246,17.246,0,0,1-2.15.166,13.913,13.913,0,0,0-11.019,5.512c2.534-1.72,6.146-2.367,10.339-2.389a16.466,16.466,0,0,0,2.339-.2" transform="translate(42.215 1001.542)" fill="#fff"/>
    <path id="Path_299" data-name="Path 299" d="M162.861,13.922c-3.366-4.372-7.052-6.435-10.379-5.809a7.572,7.572,0,0,0-4.441,2.856c-.007.011-.016.021-.023.031s-.006.011-.01.016c-.209.282-.419.565-.648.857-3.655,5.39-4.748,15.032-2.848,25.163,1.968,10.458,6.827,19.406,12.382,22.8l.007,0a7.759,7.759,0,0,0,5.536,1.253c3.328-.622,6.012-3.879,7.56-9.172,1.619-5.537,1.769-12.551.422-19.751s-4.036-13.672-7.557-18.246m-3.149,32.049a9.083,9.083,0,0,1-5.753,4.125,1.062,1.062,0,1,1-.436-2.079,7.006,7.006,0,0,0,4.41-3.207,13.539,13.539,0,0,0,1.494-9.983c-1.323-6.3-6.129-10.649-10.716-9.687a1.062,1.062,0,1,1-.436-2.079c5.731-1.2,11.668,3.879,13.232,11.329a15.481,15.481,0,0,1-1.794,11.582" transform="translate(-49.613 1053.962)" fill="#fff"/>
    <path id="Path_300" data-name="Path 300" d="M42.7,50.049a34.813,34.813,0,0,1-17,10.414c-.491,3.9-.471,10.313,3.372,16.078A1.062,1.062,0,1,1,27.3,77.719a25.383,25.383,0,0,1-3.821-16.792,16.429,16.429,0,0,1-2.339.2c-4.194.022-7.806.67-10.339,2.389a13.679,13.679,0,0,0-2.8,8.3A13.827,13.827,0,0,0,21.812,85.63a29.9,29.9,0,0,0,4.453-.551c5.726-.964,13.877-2.337,24.3,2.089-3.528-4.695-6.3-11.345-7.717-18.861A48.391,48.391,0,0,1,42.7,50.049" transform="translate(49.965 1023.084)" fill="#82cbe5"/>
    <path id="Path_301" data-name="Path 301" d="M158.884,64.2a1.062,1.062,0,1,0,.436,2.079c4.587-.962,9.393,3.383,10.716,9.687a13.539,13.539,0,0,1-1.494,9.983,7.007,7.007,0,0,1-4.41,3.207,1.062,1.062,0,1,0,.436,2.079,9.081,9.081,0,0,0,5.753-4.125,15.478,15.478,0,0,0,1.794-11.582c-1.564-7.45-7.5-12.533-13.232-11.329" transform="translate(-60.222 1012.819)" fill="#d3dce7"/>
    <path id="Path_302" data-name="Path 302" d="M67.053,25.9c-1.413-7.515-4.24-14.317-7.962-19.151-3.879-5.038-8.3-7.383-12.455-6.6a9.667,9.667,0,0,0-5.751,3.67l0,0-.008.01c-.015.019-.03.039-.043.059-.207.248-.411.521-.639.848-5.01,6.445-13.986,12.453-20.886,13.977a16.369,16.369,0,0,1-3.376.41A15.934,15.934,0,0,0,10.9,50.179c.012.031.02.063.036.094l5.767,14.2A6.407,6.407,0,0,0,22.407,68H33.6a3.191,3.191,0,0,0,2.8-4.716L30.37,49.48c5.524.075,12.2,1.437,19.958,6.287l0,0,.007,0a10.433,10.433,0,0,0,5.45,1.678,8.542,8.542,0,0,0,1.588-.149c4.153-.776,7.423-4.563,9.207-10.664,1.711-5.852,1.878-13.217.47-20.739M34.539,64.294a1.06,1.06,0,0,1-.022,1.064,1.045,1.045,0,0,1-.912.516h-11.2a4.267,4.267,0,0,1-3.8-2.345L13.439,50.8a15.8,15.8,0,0,0,2.5.2,31.084,31.084,0,0,0,4.806-.581,61.108,61.108,0,0,1,7.11-.887l.224-.01,1.2,2.743ZM20.39,48.323a29.881,29.881,0,0,1-4.453.551A13.827,13.827,0,0,1,2.125,35.062a13.679,13.679,0,0,1,2.8-8.3,13.913,13.913,0,0,1,11.018-5.513,17.248,17.248,0,0,0,2.15-.165,28.629,28.629,0,0,0-.491,3.086,25.387,25.387,0,0,0,3.821,16.793A1.062,1.062,0,1,0,23.2,39.785c-3.843-5.765-3.863-12.18-3.371-16.078a25.306,25.306,0,0,1,.569-3.067c6.046-1.509,12.347-5.541,17.05-9.858-.236.8-.44,1.645-.619,2.511a48.4,48.4,0,0,0,.145,18.257c1.414,7.516,4.189,14.166,7.717,18.861-10.42-4.426-18.571-3.054-24.3-2.09m44.153-2.281c-1.548,5.293-4.232,8.55-7.56,9.172a7.76,7.76,0,0,1-5.536-1.253l-.007,0c-5.554-3.392-10.414-12.34-12.382-22.8C37.159,21.028,38.252,11.386,41.907,6c.228-.292.439-.575.648-.857,0-.005.006-.011.01-.016s.016-.02.023-.031a7.574,7.574,0,0,1,4.441-2.856c3.327-.626,7.013,1.437,10.379,5.809,3.521,4.574,6.205,11.054,7.557,18.246s1.2,14.214-.422,19.751" transform="translate(55.84 1059.84)" fill="#003361"/>
  </g>
</svg>
