<svg xmlns="http://www.w3.org/2000/svg" width="125" height="125" viewBox="0 0 125 125">
  <g id="Property_-_Blue" data-name="Property - Blue" transform="translate(13 13)">
    <rect id="Rectangle_25" data-name="Rectangle 25" width="125" height="125" transform="translate(-13 -13)" fill="none"/>
    <path id="Path_183" data-name="Path 183" d="M174.079,11.812h9.374V47.746h-9.374L139.52,11.812h18.936V4h15.623Z" transform="translate(-85.026 -2.438)" fill="#82cce6"/>
    <path id="Path_184" data-name="Path 184" d="M48.1,24.016,14.936,59.934H4V24H48.089Z" transform="translate(-2.438 -14.626)" fill="#82cce6"/>
    <rect id="Rectangle_13" data-name="Rectangle 13" width="15" height="16" transform="translate(69 59)" fill="#d3dde8"/>
    <path id="Path_185" data-name="Path 185" d="M122.748,81.374v7.812H104V81.374A9.381,9.381,0,0,1,113.374,72a9.388,9.388,0,0,1,9.374,9.374" transform="translate(-63.379 -43.878)" fill="#d3dde8"/>
    <rect id="Rectangle_14" data-name="Rectangle 14" width="15" height="16" transform="translate(16 59)" fill="#d3dde8"/>
    <path id="Path_186" data-name="Path 186" d="M98.428,179.746H95.3V137.562a1.562,1.562,0,1,0-3.125,0v42.183h-25v-7.812a1.562,1.562,0,0,0-1.562-1.562H60.931V142.249a1.562,1.562,0,0,0-1.562-1.562H40.621a1.562,1.562,0,0,0-1.562,1.562v28.122H34.372a1.562,1.562,0,0,0-1.562,1.562v7.812h-25V137.562a1.562,1.562,0,1,0-3.125,0v42.183H1.562a1.562,1.562,0,1,0,0,3.125H98.428a1.562,1.562,0,1,0,0-3.125M42.183,143.812H57.807v26.56H42.183ZM35.934,173.5H64.056v6.249H35.934Z" transform="translate(0 -82.88)" fill="#003361"/>
    <path id="Path_187" data-name="Path 187" d="M98.428,7.812H90.616V1.562A1.562,1.562,0,0,0,89.053,0H73.43a1.562,1.562,0,0,0-1.562,1.562V7.812H55.16L51.122,3.605a1.613,1.613,0,0,0-1.144-.48,1.561,1.561,0,0,0-1.133.5L45,7.812H1.562A1.562,1.562,0,0,0,0,9.374V45.308A1.562,1.562,0,0,0,1.562,46.87H12.5a1.561,1.561,0,0,0,1.148-.5l33.17-35.92,3.2-3.48,3.349,3.489L87.927,46.391a1.562,1.562,0,0,0,1.126.479h9.374a1.562,1.562,0,0,0,1.562-1.562V9.374a1.562,1.562,0,0,0-1.562-1.562M11.815,43.746H3.125V10.936H42.112Zm85.05,0H89.719L58.165,10.936h13.7V12.5a1.562,1.562,0,1,0,3.125,0V3.125h12.5V21.873a1.562,1.562,0,1,0,3.125,0V10.936h6.249Z" fill="#003361"/>
    <path id="Path_188" data-name="Path 188" d="M189.186,166.748a1.562,1.562,0,0,0,1.562-1.562V149.562A1.562,1.562,0,0,0,189.186,148H173.562A1.562,1.562,0,0,0,172,149.562v15.623a1.562,1.562,0,0,0,1.562,1.562Zm-14.061-15.623h12.5v12.5h-12.5Z" transform="translate(-104.819 -90.193)" fill="#003361"/>
    <path id="Path_189" data-name="Path 189" d="M53.186,166.748a1.562,1.562,0,0,0,1.562-1.562V149.562A1.562,1.562,0,0,0,53.186,148H37.562A1.562,1.562,0,0,0,36,149.562v15.623a1.562,1.562,0,0,0,1.562,1.562ZM39.125,151.125h12.5v12.5h-12.5Z" transform="translate(-21.939 -90.193)" fill="#003361"/>
    <path id="Path_190" data-name="Path 190" d="M101.562,88.31H120.31a1.562,1.562,0,0,0,1.562-1.562V78.936A10.951,10.951,0,0,0,110.936,68,10.949,10.949,0,0,0,100,78.936v7.812a1.562,1.562,0,0,0,1.562,1.562m1.562-9.374a7.821,7.821,0,0,1,7.812-7.812,7.825,7.825,0,0,1,7.812,7.812v6.249H103.125Z" transform="translate(-60.941 -41.44)" fill="#003361"/>
  </g>
</svg>
