<svg xmlns="http://www.w3.org/2000/svg" width="15.721" height="15.721" viewBox="0 0 15.721 15.721">
  <g id="Search_Icon_-_Green_-_Desktop" data-name="Search Icon - Green - Desktop" transform="translate(0)">
    <path id="Path_52" data-name="Path 52" d="M9.232,0A6.484,6.484,0,0,0,4.211,10.592L.19,14.613a.649.649,0,1,0,.918.918L5.129,11.51A6.487,6.487,0,1,0,9.232,0m0,11.68a5.191,5.191,0,1,1,5.191-5.191A5.2,5.2,0,0,1,9.232,11.68" transform="translate(0)" fill="#fff"/>
    <path id="Path_53" data-name="Path 53" d="M18.436,5.78A5.322,5.322,0,0,0,16.127,3.6a.649.649,0,0,0-.57,1.166,4.032,4.032,0,0,1,1.748,1.65.649.649,0,1,0,1.131-.637" transform="translate(-5.335 -1.241)" fill="#fff"/>
  </g>
</svg>
