<svg xmlns="http://www.w3.org/2000/svg" width="30" height="30" viewBox="0 0 30 30">
  <path id="Search_Icon_-_White" data-name="Search Icon - White" d="M15,30A15,15,0,0,1,4.393,4.393,15,15,0,1,1,25.606,25.606,14.9,14.9,0,0,1,15,30ZM16.232,7a6.484,6.484,0,0,0-5.021,10.592L7.19,21.614a.649.649,0,1,0,.918.917l4.02-4.02A6.487,6.487,0,1,0,16.232,7Zm0,11.679a5.191,5.191,0,1,1,5.191-5.19A5.2,5.2,0,0,1,16.232,18.68Zm1.276-9.386a.649.649,0,0,0-.286,1.232,4.033,4.033,0,0,1,1.748,1.65.649.649,0,0,0,1.131-.636,5.323,5.323,0,0,0-2.309-2.18A.647.647,0,0,0,17.508,9.294Z" fill="#fff"/>
</svg>
