<svg id="Search_Icon_-_Green_-_Desktop" data-name="Search Icon - Green - Desktop" xmlns="http://www.w3.org/2000/svg" width="20.961" height="20.961" viewBox="0 0 20.961 20.961">
  <path id="Path_468" data-name="Path 468" d="M12.309,0A8.645,8.645,0,0,0,5.615,14.123L.253,19.484a.865.865,0,1,0,1.223,1.223l5.361-5.361A8.649,8.649,0,1,0,12.309,0m0,15.573a6.921,6.921,0,1,1,6.921-6.921,6.929,6.929,0,0,1-6.921,6.921" transform="translate(0)" fill="#fff"/>
  <path id="Path_469" data-name="Path 469" d="M19.517,6.528a7.1,7.1,0,0,0-3.079-2.906.865.865,0,0,0-.76,1.555,5.375,5.375,0,0,1,2.331,2.2.865.865,0,1,0,1.508-.849" transform="translate(-2.048 -0.477)" fill="#fff"/>
</svg>
